<svg xmlns="http://www.w3.org/2000/svg" viewBox="0 0 516.51 539.21"><title>success</title><g id="Layer_11" data-name="Layer 11"><path d="M217.73,128.22c-7.28,49.71-47.67,85.57-62.57,132.47-.3.92,1.15,1.32,1.44.4,14.91-46.9,55.3-82.73,62.58-132.47.14-.94-1.31-1.35-1.45-.4Z" transform="translate(-32.81 -31.56)" style="fill:#e8e8e8"/><path d="M197.94,222.09c-23.19,57-62.13,111-60.81,174.94a.75.75,0,0,0,1.5,0c-1.32-63.8,37.62-117.73,60.76-174.54.36-.89-1.09-1.28-1.45-.4Z" transform="translate(-32.81 -31.56)" style="fill:#e8e8e8"/><path d="M395.27,204.66c16.26,27.3,42.15,46.26,65,67.69,25.56,24,44.41,52.86,53,87.1a.75.75,0,0,0,1.45-.39c-8.19-32.73-25.77-61.14-49.92-84.49-23.53-22.75-51.14-42.08-68.17-70.67a.75.75,0,0,0-1.29.76Z" transform="translate(-32.81 -31.56)" style="fill:#e8e8e8"/><path d="M329.88,64.69c7.77,32.37,34.14,55.18,49,84,.44.86,1.74.1,1.29-.76-14.78-28.72-41.1-51.44-48.83-83.66-.22-.94-1.67-.55-1.45.39Z" transform="translate(-32.81 -31.56)" style="fill:#e8e8e8"/><path d="M253,525.36l-32-11.3c-5.18-1.83-10.36-3.68-15.55-5.49-3-1-5.83-2.26-8.63-.3a.8.8,0,0,0-.34.85c2.88,9.24,10.18,15.39,17.55,21.18l.73-1.25c-4.69-1.68-15.36-4.17-19.09.93-3.41,4.65,5,9.81,8.33,11.35.87.4,1.63-.89.76-1.29-3.21-1.48-12-6.73-4.73-10.85,3.6-2,10.76,0,14.33,1.3.68.25,1.32-.79.73-1.25-4.77-3.75-9.71-7.62-13.27-12.61-2-2.78-6.21-8.38.76-7.46,3.19.42,6.74,2.36,9.79,3.43l40.23,14.2c.91.33,1.3-1.12.39-1.44Z" transform="translate(-32.81 -31.56)" style="fill:#e8e8e8"/><path d="M287.79,532.11c-4.55-.44-9.1-.76-13.67-.9-1.66,0-4.95-.65-6.18,1-2.71,3.68,5.55,7.86,8,8.57a.75.75,0,0,0,.4-1.45,12.62,12.62,0,0,1-5.69-3.26c-1.24-1.28-1.66-2.53.39-3.43.92-.4,2.85.06,3.81.09,4.31.14,8.62.45,12.91.87,1,.09.95-1.41,0-1.5Z" transform="translate(-32.81 -31.56)" style="fill:#e8e8e8"/><path d="M276.27,548.35a33.55,33.55,0,0,0-12-1.76c-2.31.12-6.14,0-7.75,1.92-3,3.48,4.22,6.56,6.32,8l.38-1.4a147.57,147.57,0,0,0-15.65,2.31c-1.95.41-6.47.6-7,3.3-.38,1.91,1.63,3.12,3,4a55,55,0,0,0,13.82,6.09c.93.28,1.32-1.17.4-1.45a61.07,61.07,0,0,1-8.84-3.4c-2-.94-8-3-4.72-6.21,1.2-1.16,6-1.28,7.65-1.58,3.78-.67,7.59-1.15,11.41-1.52a.76.76,0,0,0,.38-1.4c-.91-.61-3.13-1.68-3.8-2.54-3.62-4.71,2.28-4.44,4.47-4.55a32.19,32.19,0,0,1,11.64,1.71c.92.29,1.31-1.15.4-1.45Z" transform="translate(-32.81 -31.56)" style="fill:#e8e8e8"/><path d="M318.87,527.85c3.18-1.85,6.38-3.64,9.64-5.34,1.49-.78,3.31-2.17,4.92-2.49l1.66-.8q4.57,1.8,1.76,3.45c-.66.59.19,1.54.91,1.18,3-1.53,17.68-8.33,16-.83-.21.94,1.24,1.35,1.45.4l.78-3.56a.77.77,0,0,0-.53-.92c-6.6-2-12.61.66-18.49,3.61l.91,1.18c1.74-1.56,4.67-6.27.43-7.14-2.24-.45-5.55,2.06-7.32,2.95-4.39,2.19-8.68,4.55-12.92,7a.75.75,0,0,0,.76,1.29Z" transform="translate(-32.81 -31.56)" style="fill:#e8e8e8"/><path d="M343.47,540.05a32.25,32.25,0,0,1,7.7-3.21A28.73,28.73,0,0,1,356,536q2.79-.64,3.6,2.9a.76.76,0,0,0,1,1,32.32,32.32,0,0,1,11.07-4.36,30.54,30.54,0,0,1,6.26-.52c1.14,0,8.15-.16,4.49,2a.75.75,0,0,0,.76,1.3,6.16,6.16,0,0,0,2.61-2.71.76.76,0,0,0-.45-1.1,33.63,33.63,0,0,0-25.5,4.1l1,1c1.45-2.16.18-4.28-2.16-5-4.9-1.55-11.92,1.81-16.06,4.11-.84.47-.09,1.77.76,1.3Z" transform="translate(-32.81 -31.56)" style="fill:#e8e8e8"/><path d="M328.58,553.92c3,1.47,5.77,1.45,9.05,1.14,2.29-.22,4.56-.51,6.86-.62,1.19-.05,2.39-.08,3.59-.08,1.91-.57,2.47.12,1.69,2.09a.75.75,0,0,0-.38,1.39c.8.54,1.36.43,2.09.91l.2,0c1.78-.27,2.3.82,1.54,3.28a.75.75,0,0,0-.75,1.29c2,1.2,4.8.87,5.36-1.81,1-4.91-5.42-3.47-7.68-5l-.38,1.4c2.19-.15,6.35-2,3.49-4.61-1.45-1.35-7.07-.48-8.77-.4-4.92.23-10.48,2-15.15-.31-.86-.43-1.62.86-.76,1.29Z" transform="translate(-32.81 -31.56)" style="fill:#e8e8e8"/><path d="M382.49,519.39a13.21,13.21,0,0,0,9.08-.43c4.17-1.5,9.8-5.71,14.21-3.8,2.67,1.16,2.88,3.25,6.38,2.81,6.43-.82,11.65-2.21,18.24-1.23l-.33-1.25-3,3.37c-.63.73.42,1.79,1.06,1.07l3-3.38c.33-.37.27-1.16-.33-1.25a42.85,42.85,0,0,0-12.54-.18c-1.37.2-2.88.75-4.26.85a3.28,3.28,0,0,1-3.1-.36A2.44,2.44,0,0,1,408,514a8,8,0,0,0-1.78-.87c-8.16-2.1-14.91,7.59-23.33,4.8-.92-.31-1.31,1.14-.4,1.44Z" transform="translate(-32.81 -31.56)" style="fill:#e8e8e8"/><path d="M127.3,521.86a12.61,12.61,0,0,1-4.65-8.93l-1.13.65a64.74,64.74,0,0,1,7.11,3.7.75.75,0,0,0,1-1,33.38,33.38,0,0,1-5-20.12l-1.28.53,16.55,14c.73.62,1.8-.44,1.06-1.07l-16.55-14a.76.76,0,0,0-1.28.53A34.84,34.84,0,0,0,128.36,517l1-1a65.72,65.72,0,0,0-7.11-3.71c-.46-.21-1.19,0-1.13.65a14.2,14.2,0,0,0,5.09,10c.73.63,1.8-.43,1.06-1.06Z" transform="translate(-32.81 -31.56)" style="fill:#e8e8e8"/><path d="M149.94,508.29a1.32,1.32,0,0,1-.61-1.65,2,2,0,0,1,2.3-1.06c1.73.27,2.87,1.82,3.84,3.13.57.77,1.88,0,1.3-.75-1.62-2.18-4.14-5-7.19-3.61-2.07.92-2.59,4.11-.4,5.23.86.44,1.62-.85.76-1.29Z" transform="translate(-32.81 -31.56)" style="fill:#e8e8e8"/><path d="M454.92,508.87c3.09-3.42,6.27-6.76,9.59-10l2-1.91q5-1.77,4.16,1.67c-.08-.14.73,2.85.75,2.88a.74.74,0,0,0,1,.27l5.8-4.42c1.25-.95,2.9-2.87,4.34-3.31q1.34-1.63,2.93.23,2.81.42,2,3.21a12.7,12.7,0,0,0,.68,4.08c.33.9,1.78.51,1.44-.4-1.05-2.82.38-9-3.9-9.87-3.7-.75-11.91,9.67-13.59,7.33-.83-1.15.5-3.22-.93-4.58-1-.95-1.7-.81-3-.46-1.91.53-4.1,3.52-5.48,4.86-3.08,3-6,6.13-8.92,9.32-.64.72.41,1.78,1.06,1.06Z" transform="translate(-32.81 -31.56)" style="fill:#e8e8e8"/><path d="M78,71.82v59.51a.75.75,0,0,0,1.5,0V71.82a.75.75,0,0,0-1.5,0Z" transform="translate(-32.81 -31.56)" style="fill:#e8e8e8"/><path d="M96.18,112.46v53a.75.75,0,0,0,1.5,0v-53a.75.75,0,0,0-1.5,0Z" transform="translate(-32.81 -31.56)" style="fill:#e8e8e8"/><path d="M412.54,44.5V128a.75.75,0,0,0,1.5,0V44.5a.75.75,0,0,0-1.5,0Z" transform="translate(-32.81 -31.56)" style="fill:#e8e8e8"/><path d="M453.64,186.49V226.4a.75.75,0,0,0,1.5,0V186.49a.75.75,0,0,0-1.5,0Z" transform="translate(-32.81 -31.56)" style="fill:#e8e8e8"/><path d="M478.8,89v52.25a.75.75,0,0,0,1.5,0V89a.75.75,0,0,0-1.5,0Z" transform="translate(-32.81 -31.56)" style="fill:#e8e8e8"/><path d="M493.89,187.21v47.9a.75.75,0,0,0,1.5,0v-47.9a.75.75,0,0,0-1.5,0Z" transform="translate(-32.81 -31.56)" style="fill:#e8e8e8"/><path d="M109.25,272.85v98a.75.75,0,0,0,1.5,0v-98a.75.75,0,0,0-1.5,0Z" transform="translate(-32.81 -31.56)" style="fill:#e8e8e8"/><path d="M120.86,393.32v45.73a.75.75,0,0,0,1.5,0V393.32a.75.75,0,0,0-1.5,0Z" transform="translate(-32.81 -31.56)" style="fill:#e8e8e8"/><path d="M156.42,418v47.17a.75.75,0,0,0,1.5,0V418a.75.75,0,0,0-1.5,0Z" transform="translate(-32.81 -31.56)" style="fill:#e8e8e8"/><path d="M63,441l5.08,5.08a.75.75,0,0,0,1.06-1.06L64.08,440c-.68-.69-1.74.37-1.06,1.06Z" transform="translate(-32.81 -31.56)" style="fill:#e8e8e8"/><path d="M186.15,47v92a.75.75,0,0,0,1.5,0V47a.75.75,0,0,0-1.5,0Z" transform="translate(-32.81 -31.56)" style="fill:#e8e8e8"/><path d="M150,141.26v66.81a.75.75,0,0,0,1.5,0V141.26a.75.75,0,0,0-1.5,0Z" transform="translate(-32.81 -31.56)" style="fill:#e8e8e8"/><circle cx="50.94" cy="162.19" r="4.96" style="fill:none;stroke:#461eb8;stroke-miterlimit:10"/><circle cx="102.33" cy="28.99" r="3.94" style="fill:#461eb8"/><circle cx="36.43" cy="338.54" r="5.69" style="fill:#461eb8"/><circle cx="370.76" cy="146.18" r="3.08" style="fill:none;stroke:#461eb8;stroke-miterlimit:10"/><circle cx="465.57" cy="3.73" r="3.73" style="fill:#461eb8"/><circle cx="329.11" cy="428.84" r="4.77" style="fill:none;stroke:#461eb8;stroke-miterlimit:10"/><circle cx="106.88" cy="237.6" r="4.56" style="fill:#ec615b"/><circle cx="225.44" cy="8.82" r="5.09" style="fill:#ec615b"/><circle cx="375.62" cy="428.92" r="4.86" style="fill:#ec615b"/><circle cx="498.12" cy="236.67" r="3.63" style="fill:#ec615b"/><circle cx="496.64" cy="114.63" r="2.15" style="fill:#ec615b"/><path d="M71.59,37.58c1.83,1.85,2.81.61,4.84-.12,5.69-2.06,5.81,1.45,10.3,2.94A4.17,4.17,0,0,0,91,39.62c1.23-1.06,1.71-2.8,2.91-3.88a7.32,7.32,0,0,1,10.69,1.45c.54.78,1.84,0,1.29-.76-3.52-5.08-9.58-4.71-13.79-.9-6.06,5.47-5.79,1.7-10.84-.45a5.19,5.19,0,0,0-2.6-.55c-1.57.16-5,3.06-6,2-.68-.68-1.74.38-1.06,1.07Z" transform="translate(-32.81 -31.56)" style="fill:#ec615b"/><path d="M97.57,43.78l6.7-.14a7.65,7.65,0,0,0,1.25,1.23c.59.29.6.49,1.26.78a5.42,5.42,0,0,0,3.33.37c4-.63,11.43-8.45,14.69-3.07a.75.75,0,0,0,1.29-.76c-3-4.94-8.64-1.41-12.29.65s-5.73,1.41-8.89-.66a8,8,0,0,0-2.5-1.37,6,6,0,0,0-5.9,1.91.75.75,0,0,0,1.06,1.06Z" transform="translate(-32.81 -31.56)" style="fill:#ec615b"/><path d="M411.34,147.76c.77-2.58,7.42,2.57,9,2.53,2,0,2.93-1.63,4.42-2.68,6.68-4.71,8.85,4.95,14.86,2,.87-.42.11-1.72-.76-1.29-3.27,1.6-6.42-3.22-9.49-3.92-2.58-.58-3.76.79-5.67,2.14-1.27.89-3.45,2.07-5.13,1.65-1-.23-1.82-1.65-2.7-2.16a5.63,5.63,0,0,0-2.37-.91c-1.83-.18-3.09.49-3.62,2.23a.75.75,0,0,0,1.45.4Z" transform="translate(-32.81 -31.56)" style="fill:#ec615b"/><path d="M423.94,181.12a.75.75,0,0,0,0-1.5.75.75,0,0,0,0,1.5Z" transform="translate(-32.81 -31.56)" style="fill:#ec615b"/><path d="M428.91,157.67c2.43-2.26,5.51-1.79,7.89.24.65.55,1,1.39,1.66,1.92a3.68,3.68,0,0,0,2.73,1c1.35-.06,2.24-1,3.4-1.53A10.12,10.12,0,0,1,456,160.43c.75.6,1.81-.46,1.06-1.06a11.78,11.78,0,0,0-6.46-2.84c-3.57-.35-6.55,2.39-9.68,2-2.86-.34-3.89-3.49-7-4a6.9,6.9,0,0,0-6,2.05c-.71.66.35,1.72,1.06,1.06Z" transform="translate(-32.81 -31.56)" style="fill:#ec615b"/><path d="M34.23,491.67c3-4.64,9.25,4.23,12.82,4.55a6.45,6.45,0,0,0,4-1.15c4.46-2.53,7.84-2.62,12.54.22a.75.75,0,0,0,.76-1.3c-2.5-1.5-5.28-3.19-8.33-2.93a9.07,9.07,0,0,0-4.08,1.62c-3.38,2-6.1,1.45-9.58-1-2.83-2-6.87-4.75-9.42-.78-.52.81.78,1.57,1.3.76Z" transform="translate(-32.81 -31.56)" style="fill:#ec615b"/><path d="M59.42,484.94a7.88,7.88,0,0,0,8.42,2.9,18.4,18.4,0,0,0,2.1-1c2.26-1,3.33-.82,5.59.33,1.64.84,2.85,1.71,4.72,2,.94.13,1.35-1.31.4-1.44-3-.41-5.24-3.26-8.29-3.25a6.31,6.31,0,0,0-2.73.84c-3.4,1.6-6.5,1.94-9.15-1.39-.6-.75-1.66.31-1.06,1.06Z" transform="translate(-32.81 -31.56)" style="fill:#ec615b"/><path d="M500.21,520.18c4-2.61,8,2.38,12.07,1.87,2.72-.34,4.68-2.29,7-3.56,5.68-3.16,8.57,1.09,13.84,1.6a5.64,5.64,0,0,0,5.2-1.89c.65-.71-.4-1.78-1.06-1.06-4,4.34-9.39-1.88-13.77-1.74-2.28.07-4.18,1.31-6,2.49-2.44,1.55-4.41,3.16-7.61,2.48-1.42-.3-2.76-1.36-4.12-1.83-2.3-.81-4.16-1-6.23.34-.81.53-.06,1.83.75,1.3Z" transform="translate(-32.81 -31.56)" style="fill:#ec615b"/><path d="M531,524.89c4.53-3.66,15.62,7.92,18.25-1.08a.75.75,0,0,0-1.44-.4c-.56,1.91-3,2.57-4.68,2.28a12.67,12.67,0,0,1-3.29-1.27,21.06,21.06,0,0,0-4.18-1.79,6.2,6.2,0,0,0-5.72,1.2c-.75.6.32,1.66,1.06,1.06Z" transform="translate(-32.81 -31.56)" style="fill:#ec615b"/><path d="M368.33,43.47q3.46-2.85,6-.44a8.29,8.29,0,0,0,1.82,1.11,5.66,5.66,0,0,0,2.26.7c2.32.19,3.66-1.29,5.65-2.12,5.8-2.41,7.87.92,13.06,1.75a7,7,0,0,0,5.82-1.3c.77-.56,0-1.87-.76-1.29-4.89,3.61-10-2.26-15.05-1.79a8.74,8.74,0,0,0-3.19,1c-2,1-1.92,1.09-4.77,1.27-3.58.21-2.73,0-5.29-1.45s-7.93-1.29-7,3c.2.94,1.65.55,1.44-.4Z" transform="translate(-32.81 -31.56)" style="fill:#ec615b"/><path d="M398.75,47.56a10,10,0,0,0,10.84,4.53c.94-.22.55-1.67-.4-1.45A8.46,8.46,0,0,1,400,46.81c-.5-.82-1.8-.07-1.29.75Z" transform="translate(-32.81 -31.56)" style="fill:#ec615b"/></g><g id="character"><g id="cape"><path d="M211.85,426.26a99.3,99.3,0,0,0,34,11.16,109.88,109.88,0,0,0,25.43.14A121.17,121.17,0,0,0,299.38,431c28.09-9.76,46.34-17.34,63-23.47,24.44-9,36.66-13.49,53-15.95a170.92,170.92,0,0,1,54.52.67c-.15-35.8-9.22-60.46-17.33-76.24-14.76-28.71-37.29-49.28-76.55-85.12-20.21-18.45-38.23-32.83-52-60.95a152.29,152.29,0,0,1-10.93-30.19L266,151.1a141.77,141.77,0,0,0-27.86,79.81C236.74,260.83,227.8,326.19,211.85,426.26Z" transform="translate(-32.81 -31.56)" style="fill:#e5e5e5"/><path d="M265.39,150.81c-7.53,8.54-13.49,16.05-17.84,21.76-8.5,11.17-14.6,19.25-20.9,31.12a129.09,129.09,0,0,0-10.16,23.44c-2.54,8.1-3.05,12.79-5.41,27-2.31,13.84-4,24-5.88,32.47-2.91,13.12-4.35,13.48-14.53,43.53s-11.88,39-12.66,43.37c-1.86,10.63-3.56,20.75-2.1,34.19a88.47,88.47,0,0,0,9.15,32A91.05,91.05,0,0,0,208,467.79a93.72,93.72,0,0,0,34,17.83,198.07,198.07,0,0,1-14.45-35.14,209.55,209.55,0,0,1-7.64-38.77,238.94,238.94,0,0,1-.58-37.6c.72-12.26,1.95-18.69,7.05-48.76,3.43-20.26,6.29-37.55,7.63-45.82,6.67-41,5.9-43.12,8.81-58.15A320.9,320.9,0,0,1,265.39,150.81Z" transform="translate(-32.81 -31.56)" style="fill:#fff"/><path d="M313.08,139.77A200.62,200.62,0,0,0,322,165.44,209.53,209.53,0,0,0,349.71,212c34.45,45.22,51.68,67.83,65.44,83.86,0,0,24.29,28.28,42.09,59.49a102.86,102.86,0,0,1,7.44,15.83c5.33,14.47,5.86,26.27,6.37,36.18.79,15.47,1.83,32.77,3.34,55.42a97,97,0,0,0,11.23-8.35,102.63,102.63,0,0,0,27.88-39.55,162.23,162.23,0,0,0-4.23-32.8c-1.39-5.87-7.93-32.15-32.18-65.94-20.48-28.54-42.1-46.41-59.68-60.74S390.19,235.68,363.52,213c-15.68-13.36-24.1-21.51-32.11-33.26A133.12,133.12,0,0,1,313.08,139.77Z" transform="translate(-32.81 -31.56)" style="fill:#fff"/><path d="M264.86,150.28c-16.38,19.43-33.07,39.32-43.67,62.64-11.62,25.56-10.75,54-18.72,80.61-14.4,48.12-44.69,102.57-15.38,151.33a89.65,89.65,0,0,0,55.36,40.9c.93.23,1.33-1.22.39-1.44a88.08,88.08,0,0,1-52.16-36.59c-14.42-21.55-16.72-47.39-12.24-72.45,4.7-26.29,15.77-50.75,23.84-76.06A221.26,221.26,0,0,0,211,260.85c1.74-13.27,3.42-26.33,8.11-38.94,9.94-26.74,28.69-49,46.84-70.57.61-.74-.44-1.8-1.06-1.06Z" transform="translate(-32.81 -31.56)"/><path d="M242.57,485.24c-20.14-40.67-26.75-86-20.62-130.81,3.14-22.93,7.14-45.76,10.76-68.62,3.47-21.9,6.58-43.91,10.71-65.7,4.52-23.86,11-47.51,23.27-68.63a.75.75,0,0,0-1.3-.76c-22.28,38.19-26.13,84.25-32.92,127.07-3.83,24.15-7.91,48.28-11.43,72.48-3.17,21.82-4,43.67-1.15,65.59A223.36,223.36,0,0,0,241.28,486c.42.86,1.72.11,1.29-.76Z" transform="translate(-32.81 -31.56)"/><path d="M222.59,430.1c14.14,6.31,28,10.38,43.65,8.84,15.89-1.57,31.53-6.27,46.55-11.48,31.46-10.92,61.56-25.86,94.15-33.35,19.62-4.51,39.86-6.14,59.75-2.42.94.18,1.34-1.27.4-1.45-66-12.34-123.66,31.24-185.64,44.67-9.45,2-19.23,3.59-28.93,2.71-10.26-.94-19.84-4.65-29.17-8.81-.87-.39-1.64.9-.76,1.29Z" transform="translate(-32.81 -31.56)"/><path d="M312.36,140c8.46,45.77,50.24,73.23,84.3,99.9,36.49,28.58,72.7,59.67,95.33,100.85,12.52,22.79,20.42,48,20.76,74.15a.75.75,0,0,0,1.5,0c-.58-44.36-22.55-85-51.49-117.51-15.47-17.35-33-32.77-51-47.39-18.63-15.1-38.37-28.95-56.28-44.92-19.62-17.51-36.77-39-41.66-65.48-.18-.95-1.62-.55-1.45.4Z" transform="translate(-32.81 -31.56)"/><path d="M320.11,157.93c11.41,39.64,41.64,69.31,66.44,100.9,15.36,19.57,29.77,39.88,44.42,60,13.88,19,29.8,38,35.62,61.28,3.16,12.65,3.76,25.76,4.21,38.74q.74,21.18,1.41,42.37c0,1,1.54,1,1.5,0-.78-23.46-.08-47.56-3.58-70.82-3.43-22.89-15.06-41.06-28.45-59.43-14.57-20-29-40.08-43.85-59.84-12.92-17.17-26.94-33.41-40.31-50.23-15.22-19.12-29.14-39.61-36-63.33a.75.75,0,0,0-1.44.4Z" transform="translate(-32.81 -31.56)"/><path d="M474.77,463.42A106.93,106.93,0,0,0,514,417.66c.4-.87-.9-1.63-1.29-.75A105.6,105.6,0,0,1,474,462.12c-.81.53-.06,1.83.76,1.3Z" transform="translate(-32.81 -31.56)"/></g><g id="leg_left" data-name="leg left"><path d="M302.7,405.68l-15.87,16.43q18.38,62.26,22.27,61.37,3.66-.84-5.45-57.28l10.91-10.9Z" transform="translate(-32.81 -31.56)"/><path d="M330.82,239c2.52,5.15,5.91,12.31,9.65,21a450.17,450.17,0,0,1,18.15,49.52c2.22,7.49,4.91,17.37,7.48,29.14q-4.23,8.2-8.69,16.48c-14.3,26.59-29.19,51.57-44.34,75a51.46,51.46,0,0,1-10.37-24.38,49.61,49.61,0,0,1-.36-9.09q3.42-10.24,6.89-20.55,7.62-22.6,15.37-44.86-6.68-14.12-13.3-28.46-12.63-27.32-24.5-54.2Z" transform="translate(-32.81 -31.56)" style="fill:#fff"/><path d="M303.41,258.9q6.13,12.62,12.46,25.34,12,24.09,24.1,47.36-2.09,6-4.16,12-13.94,40.77-26.21,80.84l-9.51-24.34A319.54,319.54,0,0,0,318,354.86c2.49-8.07,4.54-15.85,6.23-23.26q-6.15-13.94-12.47-28-8-17.67-16-35Z" transform="translate(-32.81 -31.56)" style="fill:#9e9e9e;opacity:0.14"/><path d="M333.16,245a591,591,0,0,1,31.72,88.52.75.75,0,0,0,1.45-.4,595.22,595.22,0,0,0-31.87-88.88c-.4-.88-1.69-.11-1.3.76Z" transform="translate(-32.81 -31.56)"/><path d="M300.06,284.47A296.69,296.69,0,0,1,323.71,332c.35.89,1.8.5,1.45-.4a299.27,299.27,0,0,0-23.8-47.86c-.51-.83-1.81-.07-1.3.75Z" transform="translate(-32.81 -31.56)"/><path d="M322.58,332.05a462.93,462.93,0,0,1-21,64.34c-.36.9,1.09,1.28,1.45.4a462.93,462.93,0,0,0,21-64.34c.23-.94-1.22-1.34-1.45-.4Z" transform="translate(-32.81 -31.56)"/><path d="M365.45,338.22Q341.65,384,315,428.17a.75.75,0,0,0,1.3.76q26.61-44.18,50.43-89.95c.44-.86-.85-1.62-1.3-.76Z" transform="translate(-32.81 -31.56)"/><path d="M300.9,398.37a68.53,68.53,0,0,0,11.52,32.07c.54.79,1.84,0,1.29-.76a67,67,0,0,1-11.31-31.31c-.09-.95-1.59-1-1.5,0Z" transform="translate(-32.81 -31.56)"/></g><g id="leg_right" data-name="leg right"><path d="M295.9,452.66,298,471.1c-.36,5-.7,12.31-.48,21.14.44,18.12,3.25,42.06,6.69,42.12,2.52,0,4.82-11.84,7.21-24.21a237.61,237.61,0,0,0,3.54-25.93l-2.55-9.76-.7-21.33c-.14-.42-1.61-4.46-5.54-5.57C302.39,446.49,298,448.53,295.9,452.66Z" transform="translate(-32.81 -31.56)"/><path d="M266.22,250.89c-.09,5.22-.16,12.43-.09,21,0,0,.21,26.18,2,52.33,1.68,24.57,7,71.42,19.18,131.39a36.7,36.7,0,0,0,11.39,5.78c13.1,3.93,24.5-.88,28.11-2.59a408.27,408.27,0,0,1-10.69-47.38c-2.63-16-4.47-33.27-5.34-60.07a928.5,928.5,0,0,1,2.9-107.45Z" transform="translate(-32.81 -31.56)" style="fill:#fff"/><path d="M272.55,254.72c-.07,8.7.08,17.6.51,26.67,3.24,70,21.19,131,42.94,180.89a37.54,37.54,0,0,1-9.27.42,39.63,39.63,0,0,1-19.42-7.07c-4.33-20.35-8.22-41.84-11.44-64.42a964.62,964.62,0,0,1-9.65-140.32Z" transform="translate(-32.81 -31.56)" style="fill:#9e9e9e;opacity:0.14"/><path d="M265.47,250.89a876.67,876.67,0,0,0,21.11,204.94c.21.94,1.66.54,1.45-.4A874.32,874.32,0,0,1,267,250.89a.75.75,0,0,0-1.5,0Z" transform="translate(-32.81 -31.56)"/><path d="M311.17,261.27c-3.1,65.86-4.35,134,14.91,197.75.28.92,1.73.53,1.45-.4C308.31,395,309.57,327,312.67,261.27c.05-1-1.45-1-1.5,0Z" transform="translate(-32.81 -31.56)"/><path d="M287.34,456.91c5.62,4.43,12.42,5.76,19.39,6.54,6.28.71,12.69.85,17.75-3.42.74-.63-.32-1.68-1.06-1.07-4.7,4-10.93,3.65-16.69,3-6.53-.74-13-1.93-18.33-6.1-.75-.59-1.82.46-1.06,1.06Z" transform="translate(-32.81 -31.56)"/></g><g id="torso"><path d="M258.07,149.86a100.24,100.24,0,0,1,21-8.55,101.87,101.87,0,0,1,40.8-2.83,93.15,93.15,0,0,1,7.24,32.17c.47,12.25-1.85,18.07-2.15,28.22-.3,10.33,1.51,25,11.28,43.17a100.64,100.64,0,0,1-22.95,9.72,103,103,0,0,1-47.11,2c4.79-19,3.37-33.07,1.22-42.41-2.25-9.75-5.26-14.12-7.78-25.28A103.19,103.19,0,0,1,258.07,149.86Z" transform="translate(-32.81 -31.56)" style="fill:#ec615b"/></g><g id="trophy"><path d="M271.43,203.21q-.21,8.63-.43,17.26a16.14,16.14,0,0,0-8.69,8.44c-.43,1-3.34,8.13.89,12.72,3.13,3.39,8,3,8.78,3-.08,6.4,2.62,9.2,3.47,10,3.12,2.88,8.26,3.52,10.26,3.76,3.52.44,5.26-.09,6.89,1.4,1.14,1,1.51,2.43,2.19,5.17a31.27,31.27,0,0,1,.93,6.25l-13,3.6.58,12.1a54.89,54.89,0,0,0,12.5,2.71,56.93,56.93,0,0,0,26.91-4.08l-1.8-12.15a11.67,11.67,0,0,0-13.39-2.45l1.28-12.72a24.78,24.78,0,0,0,12.61-3.89,12.37,12.37,0,0,0,5.06-5.25,11.44,11.44,0,0,0,.64-7.16,11.59,11.59,0,0,0,7.27-3.47c4.15-4.58,3.31-12.68-1-17.32-4-4.26-9.63-4.26-10.79-4.23L322,198.53a31,31,0,0,0-6.31-2.43c-5.79-1.54-8.36-.41-22,1-8.65.92-12.05.94-17.25,3.28A35.13,35.13,0,0,0,271.43,203.21Z" transform="translate(-32.81 -31.56)" style="fill:#fff"/><path d="M317.51,196.5c1.9,1.9,3.93,4.45,3.23,6.39-2.05,5.68-24.14-3-33.37,6.9-5.6,6-4.17,16.47-3.16,23.88.71,5.2,1.48,10.85,6,15.82a24,24,0,0,0,14.46,7.2l-2.58,18.58c-3.08,3-3.56,4.23-3.25,4.72,1.34,2.12,17.59-8.84,22.84-4.25,2.22,1.94,1.84,6.11,1,9.77a54.58,54.58,0,0,1-39.41,1.37l.38-13.08,12-3c.35-7.24-1.38-9.94-3.12-11-1.32-.82-2.28-.48-8.42-1.6A34.05,34.05,0,0,1,279,257c-1.95-.8-5.31-3.17-7.19-11.83-1.05-.18-6.59-1.23-8.9-5.63-2.77-5.28,0-13.79,8-18.39q-.13-9.59-.26-19.15a103,103,0,0,1,46.82-5.53Z" transform="translate(-32.81 -31.56)" style="fill:#9e9e9e;opacity:0.19"/><path d="M277.05,202.06c-4,2.58-1.87,6,2.19,6.68,8.8,1.56,18.39.35,27-1.68.94-.22.54-1.66-.4-1.44a77.83,77.83,0,0,1-14.95,2.11c-1.92.07-3.83.06-5.75,0-1.27-.05-2.55-.14-3.82-.25q-4.74.9-3.53-4.12c.8-.52.05-1.82-.76-1.29Z" transform="translate(-32.81 -31.56)"/><path d="M296,197.63c5.92-.54,12.13-1.65,18.07-1,1.05.12,5.47.6,5.76,1.53l-1.73,4.36a10.81,10.81,0,0,1-2.52,1.32c-3.53,1.58-7.39,1.93-11.2,2.26-1,.09-1,1.59,0,1.5,4.74-.42,9.69-.86,13.85-3.4,1.7-1,5-3.3,4-5.81s-6-3.07-8.08-3.3c-6-.66-12.24.47-18.18,1-.95.09-1,1.59,0,1.5Z" transform="translate(-32.81 -31.56)"/><path d="M272.36,224.18c-4.51-.21-7.27,6.25-7.3,10a8.73,8.73,0,0,0,7.84,8.9c1,.1,1-1.4,0-1.5a7.21,7.21,0,0,1-6.34-7.4c0-2.73,2.19-8.7,5.8-8.53,1,0,1-1.46,0-1.5Z" transform="translate(-32.81 -31.56)"/><path d="M270.75,220.45c-6.33,1.79-11.12,8.85-10.55,15.4.54,6.28,5.73,10.62,12,9.48.95-.17.55-1.62-.4-1.45-7.12,1.3-11.33-5.71-9.76-12,1.09-4.41,4.71-8.74,9.13-10a.75.75,0,0,0-.4-1.45Z" transform="translate(-32.81 -31.56)"/><path d="M271.75,220.47a70.14,70.14,0,0,1,.37-16.76c.14-1-1.31-1.36-1.44-.4a70.9,70.9,0,0,0-.43,17.16c.09,1,1.59,1,1.5,0Z" transform="translate(-32.81 -31.56)"/><path d="M321.29,198.53c.45,6.11.63,12.21.54,18.34a.75.75,0,0,0,1.5,0c.09-6.13-.09-12.23-.54-18.34-.07-1-1.57-1-1.5,0Z" transform="translate(-32.81 -31.56)"/><path d="M322.37,217.9c5.85.18,10.5,2.95,12,8.85,1.42,5.68.24,14.39-7.24,14.39a.75.75,0,0,0,0,1.5c7.8,0,9.93-8.07,9-14.52-1.07-7.36-6.4-11.49-13.73-11.72a.75.75,0,0,0,0,1.5Z" transform="translate(-32.81 -31.56)"/><path d="M323.48,222.76c8.48.54,9.17,12.35.89,14.06-.94.2-.54,1.64.4,1.45,4.31-.89,7.71-4.9,7.18-9.41a8.91,8.91,0,0,0-8.47-7.6c-1-.06-1,1.44,0,1.5Z" transform="translate(-32.81 -31.56)"/><path d="M271.17,245.58c2,3.62,1.62,8.27,5.2,10.91,3.42,2.51,8.45,2.5,12.47,3.05,1,.12,1.35-1.32.4-1.45-3.72-.5-8.82-.45-11.92-2.83s-3-7-4.85-10.44c-.46-.85-1.75-.09-1.3.76Z" transform="translate(-32.81 -31.56)"/><path d="M326.71,242.26a14.49,14.49,0,0,0-.85,4.05c-.2,3.05-1.26,5.3-4,6.89-3.65,2.15-8.28,3.14-12.28,4.47-.91.31-.52,1.76.4,1.45,4.63-1.55,10.64-2.63,14.48-5.88,3.56-3,2.22-6.57,3.66-10.58.33-.91-1.12-1.3-1.45-.4Z" transform="translate(-32.81 -31.56)"/><path d="M289.13,259c1,.6,2.69,1,3.49,1.76A6.12,6.12,0,0,1,294,264.3c.38,2.5.58,5,.86,7.56.1.95,1.6,1,1.5,0-.35-3.15-.34-6.64-1.27-9.68-.87-2.86-2.8-3.13-5.16-4.5a.75.75,0,0,0-.76,1.3Z" transform="translate(-32.81 -31.56)"/><path d="M308.08,258a28.65,28.65,0,0,0-1,13.23c.15,1,1.59.55,1.45-.39a27,27,0,0,1,1-12.44c.3-.92-1.15-1.32-1.44-.4Z" transform="translate(-32.81 -31.56)"/><path d="M295.29,272.55c2,4.75,10.71,4.61,13.35.59.53-.81-.77-1.56-1.3-.76-2.06,3.15-9.24,3-10.76-.59-.37-.88-1.67-.12-1.29.76Z" transform="translate(-32.81 -31.56)"/><path d="M295.52,270.46c-2.49.42-5,.81-7.48,1.25-1.68.3-4.11.57-5.37,1.92-1.06,1.13-.83,2.52-.8,4,.08,3.09.32,6.17.68,9.25.11.95,1.61,1,1.5,0-.36-3.05-2.25-11.12.79-12.77s7.69-1.64,11.08-2.21c.95-.15.54-1.6-.4-1.44Z" transform="translate(-32.81 -31.56)"/><path d="M284.44,288.46c5.57,2.44,12.95,2.24,18.91,2.1a36.6,36.6,0,0,0,18-4.7.75.75,0,0,0-.76-1.3,34.71,34.71,0,0,1-17.26,4.5c-5.58.13-13,.36-18.15-1.9-.88-.38-1.64.91-.76,1.3Z" transform="translate(-32.81 -31.56)"/><path d="M308.76,271.29c3.27,0,9.35-.22,11.31,2.71s1.83,7.92,1.89,11.51a.75.75,0,0,0,1.5,0,56.73,56.73,0,0,0-.64-7.81c-.27-1.75-.44-3.83-1.66-5.22-2.53-2.86-8.94-2.73-12.4-2.69a.75.75,0,0,0,0,1.5Z" transform="translate(-32.81 -31.56)"/><path d="M272.08,203.59c1.41-2.82,6.68-3.59,9.43-4.21a55.91,55.91,0,0,1,9.47-1.22c1,0,1-1.55,0-1.5a57.43,57.43,0,0,0-12.57,2c-2.8.78-6.23,1.42-7.63,4.22-.43.86.86,1.62,1.3.76Z" transform="translate(-32.81 -31.56)"/><path d="M286.35,223.05v12a.75.75,0,0,0,1.5,0v-12a.75.75,0,0,0-1.5,0Z" transform="translate(-32.81 -31.56)"/><path d="M292.56,223.05,292,234.26c0,1,1.46,1,1.5,0l.52-11.21c0-1-1.46-1-1.5,0Z" transform="translate(-32.81 -31.56)"/><path d="M283.81,227.84l11.6-1.12c.95-.09,1-1.59,0-1.5l-11.6,1.12c-.95.09-1,1.59,0,1.5Z" transform="translate(-32.81 -31.56)"/><path d="M284.83,232.61l10.33-2c.94-.18.54-1.62-.4-1.44l-10.33,2c-.95.18-.54,1.63.4,1.45Z" transform="translate(-32.81 -31.56)"/><path d="M303.37,228.56a26.39,26.39,0,0,0,4-5.88L306,222.1a60.2,60.2,0,0,0-1.48,15.14c0,1,1.53,1,1.5,0a58.41,58.41,0,0,1,1.43-14.74c.18-.79-1-1.37-1.37-.58a24.67,24.67,0,0,1-3.77,5.58c-.64.71.42,1.78,1.07,1.06Z" transform="translate(-32.81 -31.56)"/></g><g id="hand_right" data-name="hand right"><path d="M258.05,152a128.21,128.21,0,0,0-7.73,12.22c-1.74,3.13-10,18.25-14.77,40.94-.83,3.95-1.36,7.19-1.67,9.22A34.41,34.41,0,0,0,249,235.73a33.36,33.36,0,0,0,7.11,3.36,24,24,0,0,0,4.37,3.68c3.33,2.18,7.41,3.64,7.77,3,.2-.33-.63-1.49-6-5.47,4.54,1.69,8.24,1.64,8.82.41s-1.64-4-5.54-6.44c4.29.84,6.55.93,6.8.27q.51-1.38-10.63-7.12c.11-2.44-1-4.09-1.92-4.11s-1.89,1.32-2.19,3.29l-8.5-14.53c2.66-5.14,5.68-10.55,9.12-16.12,4.54-7.35,9.16-13.94,13.63-19.78a24.26,24.26,0,0,0-4.39-16.72A23.41,23.41,0,0,0,258.05,152Z" transform="translate(-32.81 -31.56)" style="fill:#fff"/><path d="M258.05,152c-2.51,6.24-5.75,14.5-9.36,24.31-8.68,23.57-9.88,29.94-8.12,37.2,1.39,5.74,5.37,15.12,11.79,16.24,4.39.77,8.17-2.63,9.95-.8s-1.15,5.38,0,11.42a17,17,0,0,0,2.12,5.5,26.58,26.58,0,0,0-7.47-6.38c-2.71-1.54-4.1-1.67-6.67-3a28.66,28.66,0,0,1-9.37-7.87,34.93,34.93,0,0,1-7.4-16A184.47,184.47,0,0,1,258.05,152Z" transform="translate(-32.81 -31.56)" style="fill:#9e9e9e;opacity:0.14"/><path d="M257.41,151.58c-12.78,17.32-18.55,38.16-24,58.66a.75.75,0,0,0,1.44.4c5.43-20.39,11.15-41.08,23.85-58.3.57-.78-.73-1.53-1.29-.76Z" transform="translate(-32.81 -31.56)"/><path d="M265.67,183.93a161.07,161.07,0,0,0-17.21,28.8c-.41.87.89,1.63,1.29.76A161.9,161.9,0,0,1,267,184.69c.58-.77-.72-1.52-1.29-.76Z" transform="translate(-32.81 -31.56)"/><path d="M246.83,213.75c2.33-2.79,5.64,5.23,6.27,6.41l4,7.51c.46.85,1.75.09,1.3-.76l-3.76-7a46,46,0,0,0-3.55-6.46c-1.34-1.73-3.7-2.71-5.34-.75-.62.73.44,1.8,1.06,1.06Z" transform="translate(-32.81 -31.56)"/><path d="M232.82,212.82a35.45,35.45,0,0,0,23.13,27c.91.32,1.3-1.13.4-1.45a34,34,0,0,1-22.08-26c-.18-.95-1.62-.55-1.45.4Z" transform="translate(-32.81 -31.56)"/><path d="M258.5,228.13c.06-.89.08-2.1.8-2.76.46-.43,1.33-.51,1.61.14.38.88,1.67.12,1.3-.76a2.43,2.43,0,0,0-3.4-.86c-1.5.83-1.71,2.71-1.81,4.24-.06,1,1.44,1,1.5,0Z" transform="translate(-32.81 -31.56)"/><path d="M261.56,227.56c2,4.22,7.78,3.67,10.21,7.39.53.8,1.83.05,1.3-.76-2.45-3.73-8.28-3.38-10.22-7.38-.42-.87-1.71-.11-1.29.75Z" transform="translate(-32.81 -31.56)"/><path d="M256.27,239.65c.76,2.5,3.51,3.24,5.22,5a6.46,6.46,0,0,0,7,1.92c.91-.3.52-1.75-.4-1.45-3,1-4.42-.73-6.51-2.45-1.29-1.07-3.33-1.63-3.86-3.38-.28-.92-1.73-.53-1.45.4Z" transform="translate(-32.81 -31.56)"/><path d="M262.61,241a23.7,23.7,0,0,0,5.79,4.51c.84.46,1.6-.83.76-1.3a22,22,0,0,1-5.49-4.28c-.66-.7-1.72.36-1.06,1.07Z" transform="translate(-32.81 -31.56)"/><path d="M262.39,240.1a8.26,8.26,0,0,0,9.15,1.29c.88-.41.11-1.71-.75-1.29a6.71,6.71,0,0,1-7.34-1.06c-.72-.64-1.78.42-1.06,1.06Z" transform="translate(-32.81 -31.56)"/><path d="M265.35,235.44a9.9,9.9,0,0,1,5.1,4.11c.51.81,1.81.06,1.29-.76a11.58,11.58,0,0,0-6-4.8c-.91-.32-1.3,1.13-.39,1.45Z" transform="translate(-32.81 -31.56)"/><path d="M263,237.3a14.51,14.51,0,0,0,7,2.39c1,.08,1-1.42,0-1.5a12.93,12.93,0,0,1-6.24-2.18c-.81-.54-1.56.76-.76,1.29Z" transform="translate(-32.81 -31.56)"/><path d="M267.56,235.74a5.84,5.84,0,0,0,4.75-.29c.86-.43.11-1.72-.76-1.29a4.39,4.39,0,0,1-3.6.13c-.9-.34-1.29,1.11-.39,1.45Z" transform="translate(-32.81 -31.56)"/></g><g id="hand_left" data-name="hand left"><path d="M319.87,138.48a16,16,0,0,0-4.56,9.44c-.89,8.82,6.63,14.54,7.06,14.86l19.14,35.28q-4.29,8.37-8.56,16.74a4.59,4.59,0,0,0-3.65-1.16,4.44,4.44,0,0,0-3.5,3.07c.26.1,2.86,1.11,3.2,3.28a4.38,4.38,0,0,1-1.13,3.21c-2.79,3.65-7.29,2.84-7.76,4.79-.38,1.62,2.35,3.62,3.91,4.46a12,12,0,0,0,9.29.5c-2.72,4.38-2.88,5.67-2.49,6,.86.78,5.87-1.82,7.54-6.31,1.54-4.14-.45-8-.9-8.86A72.24,72.24,0,0,1,343,219c1.05-.82,2.49-1.91,8.18-5.77,5.93-4,6.13-4,7.05-5,1.11-1.15,4.24-4.38,4.73-8.81.44-3.94-1.42-7.09-2.39-8.79C351.14,174.4,354,174.1,342.91,158c-5.94-8.69-8.73-11.49-12-13.85A40.24,40.24,0,0,0,319.87,138.48Z" transform="translate(-32.81 -31.56)" style="fill:#fff"/><path d="M323.61,141.2c4.2,4.56,7.55,8.66,10.06,11.91C344,166.5,351.89,177,352.2,190.44a30,30,0,0,1-1.59,10.85c-.54,1.49-4.43,12.12-13.76,15.62-3.32,1.24-5.66,1-6.62,2.91-1.39,2.83,2.28,6,1,9.45-.79,2.19-3.15,3.41-5.28,4.12l7.34-.44c-2.71,4.33-2.89,5.66-2.49,6,.88.81,6.11-1.74,7.54-6.31,1.27-4.08-1.11-7.74-1.51-8.34a58.86,58.86,0,0,1,12.69-10.08c3.34-2,6.32-3.23,9.39-6.78,1.44-1.67,3.64-4.28,4-8,.19-2.09-.27-3.92-1.84-7.61a69.7,69.7,0,0,0-6-11.44c-11.25-16.1-10.47-25.1-22-33.83A42.24,42.24,0,0,0,323.61,141.2Z" transform="translate(-32.81 -31.56)" style="fill:#9e9e9e;opacity:0.21"/><path d="M319.67,139.21c11.77,3.4,19.16,13.16,25.14,23.27s11.35,20.57,16.3,31.22c.41.87,1.7.11,1.29-.76-5.66-12.18-11.74-24.39-19-35.68-5.69-8.79-13-16.52-23.29-19.5a.75.75,0,0,0-.4,1.45Z" transform="translate(-32.81 -31.56)"/><path d="M321.72,163.15a295.4,295.4,0,0,1,17.44,32.53c.4.88,1.69.12,1.29-.75A291.94,291.94,0,0,0,323,162.4c-.5-.82-1.8-.07-1.29.75Z" transform="translate(-32.81 -31.56)"/><path d="M348.35,194.51c-3.66-1.14-6.44,1.14-8.12,4.27-2.73,5.08-4.06,10.71-7.35,15.53-.54.8.75,1.55,1.3.76a46.3,46.3,0,0,0,4.48-8.82c1.5-3.7,3.59-12.07,9.29-10.3.92.29,1.32-1.16.4-1.44Z" transform="translate(-32.81 -31.56)"/><path d="M362,197.09c.76,8-6.07,12.24-12,15.93a93.86,93.86,0,0,0-12.56,9.73c-.73.64.34,1.7,1.06,1.06a90,90,0,0,1,10.25-8.22c2.85-1.88,5.91-3.48,8.55-5.65,4-3.29,6.68-7.54,6.17-12.85-.09-1-1.59-1-1.5,0Z" transform="translate(-32.81 -31.56)"/><path d="M333.59,214.42a4,4,0,0,0-6.54,0c-.56.79.74,1.54,1.29.76a2.53,2.53,0,0,1,4,0c.55.78,1.86,0,1.29-.76Z" transform="translate(-32.81 -31.56)"/><path d="M328,213.81c-1.41.15-3.24.7-3.15,2.48a2,2,0,0,0,1.07,1.53c.87.6,1.77,1.16,2.65,1.73s1.56-.77.76-1.29-1.6-1-2.39-1.56c-.38-.25-.76-.48-.39-.95s1-.39,1.45-.44c.95-.1,1-1.6,0-1.5Z" transform="translate(-32.81 -31.56)"/><path d="M336.34,223.91c1.2,3.31,2.43,6.91.56,10.23-.47.84.83,1.6,1.3.75,2.08-3.69.94-7.63-.42-11.38-.32-.9-1.77-.51-1.44.4Z" transform="translate(-32.81 -31.56)"/><path d="M328,219.35c1.4,3.23-2.85,4.85-5,5.85-1.17.54-3.68,1.62-3.89,3.14-.52,3.76,8.44.55,9.76.24.94-.22.54-1.67-.4-1.45-1.21.29-6.33,2.13-7.12,1.24-.57-.63,1.77-1.58,2.41-1.87.9-.42,1.82-.78,2.68-1.28,2.42-1.39,4.07-3.87,2.87-6.63-.38-.88-1.67-.12-1.29.76Z" transform="translate(-32.81 -31.56)"/><path d="M321.38,229.17l-.2.15a.79.79,0,0,0-.34.85c.27,1.51,2.29,1.67,3.51,1.85a15.18,15.18,0,0,0,6.18-.45.75.75,0,0,0-.4-1.45,13.92,13.92,0,0,1-3.9.55c-.55,0-3.79,0-4-.9l-.34.84.2-.14c.76-.57,0-1.88-.76-1.3Z" transform="translate(-32.81 -31.56)"/><path d="M322.26,232a10.37,10.37,0,0,0,11.43,1.57c.87-.41.11-1.71-.76-1.29a8.8,8.8,0,0,1-9.61-1.34c-.72-.64-1.79.42-1.06,1.06Z" transform="translate(-32.81 -31.56)"/><path d="M333.1,233.08a11.65,11.65,0,0,0-3,5.69c-.09.43.2,1,.72.95a8.6,8.6,0,0,0,6.31-3.72c.55-.8-.75-1.55-1.3-.76a7,7,0,0,1-5,3l.72.95a10.15,10.15,0,0,1,2.62-5c.66-.7-.4-1.76-1.06-1.06Z" transform="translate(-32.81 -31.56)"/></g><g id="head"><path d="M272.73,92a20.09,20.09,0,0,0-3.57,4.59,21.6,21.6,0,0,0-2.46,13.07,6.51,6.51,0,0,0-4.07,3c-.88,1.57-1.56,4.58.3,6.12a4.61,4.61,0,0,0,5.49-.21,35.23,35.23,0,0,0,11.16,14.53q1.35,5,2.68,10a12.79,12.79,0,0,0,4.4,1,13.35,13.35,0,0,0,7.65-2.13c-.16-3.29-.31-6.58-.47-9.87a23.85,23.85,0,0,0,3.79-3.1,25.6,25.6,0,0,0,6.5-11.5c4.83-1.17,7.49-4,7.12-5.66-.32-1.43-2.86-2.47-5.88-2.65.24-1.12,2.22-11.35-4.3-18C293.27,83.09,279,86.09,272.73,92Z" transform="translate(-32.81 -31.56)" style="fill:#fff"/><path d="M268.61,98.32a43,43,0,0,0,1.3,11.29c.82,3.25,5.12,20.29,16.4,22.41,1.81.34,5.27.57,10-1.84a52.3,52.3,0,0,1-5.76,5.9,50.87,50.87,0,0,1-4.58,3.56l.71,4.4-4.4-1-2.61-11.21a19.71,19.71,0,0,1-4.1-2.4,21.21,21.21,0,0,1-7.32-11.5c-.43,1-1.11,2.06-2.08,2.19-2.16.29-5.56-4.19-4.12-6.7,1-1.82,4.09-1.74,4.3-1.73Z" transform="translate(-32.81 -31.56)" style="fill:#9e9e9e;opacity:0.28"/><path d="M267.88,98.12a29.69,29.69,0,0,0,15.76,37.39c.87.4,1.63-.9.76-1.3a28.2,28.2,0,0,1-15.07-35.69c.32-.92-1.13-1.31-1.45-.4Z" transform="translate(-32.81 -31.56)"/><path d="M288.54,135.23c16-4.92,19-22.69,16.72-37.2-.15-1-1.59-.54-1.44.4,2.18,13.66-.49,30.69-15.68,35.35-.92.28-.52,1.73.4,1.45Z" transform="translate(-32.81 -31.56)"/><path d="M267.17,118.94c-3.75,2.91-6.82-5.88-3-6.24,1-.09,1-1.59,0-1.5-6.65.62-1.87,13.38,4,8.8.76-.59-.31-1.64-1.06-1.06Z" transform="translate(-32.81 -31.56)"/><path d="M306.23,109.63a3.23,3.23,0,0,1,4.13,1.76c.77,2.06-1.23,4-3.23,3.94-1,0-1,1.46,0,1.5,2.81.13,5.46-2.54,4.8-5.42a4.71,4.71,0,0,0-6.1-3.23c-.89.33-.51,1.79.4,1.45Z" transform="translate(-32.81 -31.56)"/><path d="M278.86,133.26a87.54,87.54,0,0,0,2.42,9.16c.3.91,1.75.52,1.45-.4a85.14,85.14,0,0,1-2.42-9.16c-.2-.94-1.64-.54-1.45.4Z" transform="translate(-32.81 -31.56)"/><path d="M281.88,143.72a11.93,11.93,0,0,0,11.93-1.28c.77-.56,0-1.86-.76-1.29a10.41,10.41,0,0,1-10.41,1.27c-.88-.37-1.64.92-.76,1.3Z" transform="translate(-32.81 -31.56)"/><path d="M293.15,133.28q-.13,3.75.09,7.48c.06,1,1.56,1,1.5,0q-.23-3.73-.09-7.48c0-1-1.47-1-1.5,0Z" transform="translate(-32.81 -31.56)"/><path d="M282.71,96.13q-.25,9.51.4,19a.76.76,0,0,0,1.28.53,11,11,0,0,0,2.77-4.59c.3-.92-1.15-1.31-1.44-.4a9.46,9.46,0,0,1-2.39,3.93l1.28.53q-.66-9.5-.4-19a.75.75,0,0,0-1.5,0Z" transform="translate(-32.81 -31.56)"/><path d="M282.37,119.84a11,11,0,0,0,8.87-2.64c.73-.64-.33-1.69-1.06-1.06a9.27,9.27,0,0,1-7.41,2.25c-.94-.13-1.35,1.32-.4,1.45Z" transform="translate(-32.81 -31.56)"/><path d="M279.26,103.55a1.9,1.9,0,0,1,.1-2.54l-1.18-.15c.46.89,1.11,2.14.15,2.92l1.18.15a5.58,5.58,0,0,1-.48-1.6c-.16-1-1.6-.55-1.45.4a7.13,7.13,0,0,0,.63,2,.76.76,0,0,0,1.18.15c1.54-1.24.85-3.27.09-4.74a.76.76,0,0,0-1.18-.15,3.37,3.37,0,0,0-.33,4.36c.58.76,1.88,0,1.29-.76Z" transform="translate(-32.81 -31.56)"/><path d="M291.91,103.55A1.9,1.9,0,0,1,292,101l-1.18-.15c.46.89,1.11,2.14.15,2.92l1.18.15a5.58,5.58,0,0,1-.48-1.6c-.16-1-1.61-.55-1.45.4a7.13,7.13,0,0,0,.63,2,.76.76,0,0,0,1.18.15c1.54-1.24.85-3.27.09-4.74A.76.76,0,0,0,291,100a3.37,3.37,0,0,0-.33,4.36c.58.76,1.88,0,1.29-.76Z" transform="translate(-32.81 -31.56)"/><path d="M272.31,108.19a.75.75,0,0,0,0-1.5.75.75,0,0,0,0,1.5Z" transform="translate(-32.81 -31.56)"/><path d="M277.86,108.83a.75.75,0,0,0,0-1.5.75.75,0,0,0,0,1.5Z" transform="translate(-32.81 -31.56)"/><path d="M275.73,113.1a.75.75,0,0,0,0-1.5.75.75,0,0,0,0,1.5Z" transform="translate(-32.81 -31.56)"/><path d="M291.31,109.47a.75.75,0,0,0,0-1.5.75.75,0,0,0,0,1.5Z" transform="translate(-32.81 -31.56)"/><path d="M296.44,106.91a.75.75,0,0,0,0-1.5.75.75,0,0,0,0,1.5Z" transform="translate(-32.81 -31.56)"/><path d="M295.16,112.25a.75.75,0,0,0,0-1.5.75.75,0,0,0,0,1.5Z" transform="translate(-32.81 -31.56)"/><path d="M275,95a4,4,0,0,1,3.67.59c.78.57,1.53-.73.76-1.3a5.4,5.4,0,0,0-4.83-.74c-.91.3-.52,1.75.4,1.45Z" transform="translate(-32.81 -31.56)"/><path d="M289.56,93.57a6.23,6.23,0,0,1,4.31-1.11c1,.09.95-1.41,0-1.5a7.44,7.44,0,0,0-5.07,1.32c-.79.54,0,1.85.76,1.29Z" transform="translate(-32.81 -31.56)"/><path d="M266.45,111.06a7.14,7.14,0,0,1,.1-3.65,6.79,6.79,0,0,1,1.47-2.54c1.19-1.37,2.72-5.72,4.4-18a32.36,32.36,0,0,0,6.09,3.81A36.35,36.35,0,0,0,291,94a47.07,47.07,0,0,0,6.86.26q1,2.13,2,4.31,2.71,5.58,5.53,10.59a4.19,4.19,0,0,1,5.3,1.25,4.05,4.05,0,0,1-.44,4.43,5.08,5.08,0,0,1-5.8,1.46q-1.74,4.24-3.5,8.48a17.11,17.11,0,0,0-7.05,8.13c-3.18,8.18,1.05,19.07,9.54,22.9,7.09,3.2,14.11.11,15.43-.51A21.23,21.23,0,0,0,331,143.63c.24-.6,3.38-8.72-.51-16.45-2.32-4.62-5.43-5.65-8.6-8.6-10.8-10-2.07-23.48-10.62-34.51-8.33-10.74-28.75-13.66-39.11-5.59a18.65,18.65,0,0,0-5.33,6.86,13.06,13.06,0,0,0-4.83,2c-7.94,5.55-3.22,16.74-9.95,31.72-3.87,8.59-6.78,7.91-8.35,14.93-.31,1.37-3.34,15.85,5.82,23.28,9.4,7.62,26.31,3.45,31-5.68,2-3.9,1.42-7.93,1-11-1.68-11.46-9.64-18.55-12.62-20.94a4.23,4.23,0,0,1-3.05,1.2c-2.11-.16-3.19-2.24-3.54-2.9-.2-.39-1.82-3.48,0-5.59C263.71,110.72,266.22,111,266.45,111.06Z" transform="translate(-32.81 -31.56)" style="fill:#461eb8"/></g></g></svg>