<svg xmlns="http://www.w3.org/2000/svg" viewBox="0 0 594.87 550.4"><title>work life balance</title><g id="bg"><g id="bg-2" data-name="bg"><path d="M481.7,151.09a93.14,93.14,0,0,0-9.6,38.17c0,1,1.46,1,1.5,0A91.26,91.26,0,0,1,483,151.85c.43-.86-.87-1.62-1.29-.76Z" transform="translate(5.15 -21.72)" fill="#e8e8e8"/><path d="M482.71,151.48c.6,2.92,2.92,4.48,5.85,4.7a21.79,21.79,0,0,0,5.38-.73c4.77-.83,8.64,0,12.35,3.24.72.64,1.79-.42,1.06-1.06a15.33,15.33,0,0,0-8.35-4c-4.22-.51-13.56,3.7-14.84-2.57-.19-.94-1.64-.54-1.45.4Z" transform="translate(5.15 -21.72)" fill="#e8e8e8"/><path d="M509.23,158.46c7.73-4.54,16.66,2.24,24.73-1.6.87-.42.11-1.71-.75-1.3-8,3.81-16.82-3-24.73,1.6a.75.75,0,0,0,.75,1.3Z" transform="translate(5.15 -21.72)" fill="#e8e8e8"/><path d="M473,189.32c2.16,3.41,5.85,4.36,9.74,3.77,3-.45,5.62-1.93,8.5-2.67a16.45,16.45,0,0,1,12.73,1.68c.84.47,1.6-.83.75-1.3A17.81,17.81,0,0,0,494,188.35c-6,.61-15.16,7.42-19.74.21-.52-.81-1.81-.06-1.29.76Z" transform="translate(5.15 -21.72)" fill="#e8e8e8"/><path d="M505.69,192.88c5.84-4,12-.49,18,1a27.4,27.4,0,0,0,12.67.1c.94-.2.54-1.64-.4-1.44-7.4,1.57-13-.94-20-2.56-3.93-.91-7.69-.77-11.08,1.56-.8.55-.05,1.85.75,1.3Z" transform="translate(5.15 -21.72)" fill="#e8e8e8"/><path d="M533.34,157.72q3,17.64,4.18,35.47c.07,1,1.57,1,1.5,0q-1.23-18-4.24-35.87c-.16-.95-1.6-.54-1.44.4Z" transform="translate(5.15 -21.72)" fill="#e8e8e8"/><path d="M484,161.07c5.29.52,11-2.45,15.91.36a.75.75,0,0,0,.76-1.3c-5.31-3-11,0-16.67-.56-1-.09-1,1.41,0,1.5Z" transform="translate(5.15 -21.72)" fill="#e8e8e8"/><path d="M473.19,190a3.92,3.92,0,0,1-1,3.43c-.65.71.41,1.77,1.06,1.06a5.53,5.53,0,0,0,1.38-4.89c-.18-.95-1.63-.55-1.45.4Z" transform="translate(5.15 -21.72)" fill="#e8e8e8"/><path d="M472.65,195.17a2.68,2.68,0,0,1,1.5,2.48.75.75,0,0,0,1.5,0,4.14,4.14,0,0,0-2.24-3.77c-.86-.44-1.62.86-.76,1.29Z" transform="translate(5.15 -21.72)" fill="#e8e8e8"/><path d="M475.14,198.61c4.72-.55,9.52-.15,14.23-.83s9-3.49,13.8-3.3c1,0,1-1.46,0-1.5-4.19-.17-7.54,1.88-11.52,2.84-5.39,1.29-11,.65-16.51,1.29-.95.11-1,1.61,0,1.5Z" transform="translate(5.15 -21.72)" fill="#e8e8e8"/><path d="M473.57,194.2h2.35a.75.75,0,0,0,0-1.5h-2.35a.75.75,0,0,0,0,1.5Z" transform="translate(5.15 -21.72)" fill="#e8e8e8"/><path d="M505.17,195.1c3.18,2.51,6.93,1.6,10.75,1.65a56.35,56.35,0,0,1,18.86,3.68c.9.34,1.29-1.11.4-1.44a58,58,0,0,0-13.07-3.29c-4.42-.56-12.34,1.14-15.88-1.66-.75-.59-1.82.46-1.06,1.06Z" transform="translate(5.15 -21.72)" fill="#e8e8e8"/><path d="M535.53,194.12a5.55,5.55,0,0,0-.59,3.46.74.74,0,0,0,.92.52.77.77,0,0,0,.53-.92,3.76,3.76,0,0,1,.44-2.3c.45-.85-.84-1.61-1.3-.76Z" transform="translate(5.15 -21.72)" fill="#e8e8e8"/><path d="M480.59,168.41c6.44.38,13.56-3.75,19.46.17.8.53,1.56-.77.75-1.3-6.25-4.16-13.44,0-20.21-.37-1-.06-1,1.44,0,1.5Z" transform="translate(5.15 -21.72)" fill="#e8e8e8"/><path d="M516,162.76a13.13,13.13,0,0,1,8.24-.27.75.75,0,0,0,.4-1.45,14.63,14.63,0,0,0-9,.27c-.9.32-.51,1.77.4,1.45Z" transform="translate(5.15 -21.72)" fill="#e8e8e8"/><path d="M513.12,170.48c6.35-3.44,13.4,2,20.15.58,1-.2.55-1.64-.39-1.45-7,1.43-13.73-4.1-20.51-.42-.85.46-.09,1.76.75,1.29Z" transform="translate(5.15 -21.72)" fill="#e8e8e8"/><path d="M512,176.57a13,13,0,0,1,7.47-.4c.93.22,1.33-1.22.39-1.45a14.32,14.32,0,0,0-8.25.41c-.91.31-.52,1.76.39,1.44Z" transform="translate(5.15 -21.72)" fill="#e8e8e8"/><path d="M514.11,179.82c5.47-1.79,10.94,1.8,16.54.79,1-.17.55-1.62-.4-1.45-5.61,1-11-2.61-16.54-.78-.91.3-.52,1.74.4,1.44Z" transform="translate(5.15 -21.72)" fill="#e8e8e8"/><path d="M478.8,175.67a33.21,33.21,0,0,0,10.68-1.17.75.75,0,0,0-.4-1.44,32.44,32.44,0,0,1-10.28,1.11c-1,0-1,1.45,0,1.5Z" transform="translate(5.15 -21.72)" fill="#e8e8e8"/><path d="M479.41,180.8c2,.61,3.73,0,5.74-.38a23.12,23.12,0,0,1,10.27.24c.94.22,1.34-1.23.4-1.45a24.94,24.94,0,0,0-7.5-.73c-2.75.17-5.85,1.67-8.51.87-.93-.28-1.32,1.17-.4,1.45Z" transform="translate(5.15 -21.72)" fill="#e8e8e8"/><path d="M505.91,162.28q-.78,11.26-1.33,22.53c0,1,1.46,1,1.5,0q.56-11.26,1.33-22.53c.06-1-1.44-1-1.5,0Z" transform="translate(5.15 -21.72)" fill="#e8e8e8"/><path d="M530.63,225.34a70.64,70.64,0,0,1-5.43,8,.76.76,0,0,0,.73,1.25l7.13-1.3c1-.18.55-1.62-.4-1.45l-7.13,1.31.73,1.25a74,74,0,0,0,5.67-8.29.75.75,0,0,0-1.3-.76Z" transform="translate(5.15 -21.72)" fill="#e8e8e8"/><path d="M531.68,225c-5-5,.93-10.55,5.64-12a27.35,27.35,0,0,1,12.11-.45c6.07,1,16.61,2.51,17.63,9.87,1.08,7.86-5.95,12.66-13,13.39s-13.75-1.81-20.36-3.66a.75.75,0,0,0-.4,1.44c9.34,2.62,20.72,6.88,29.68.75,5.45-3.73,8.08-12.32,3-17.51-3.11-3.19-8.47-4.07-12.62-5-5.1-1.16-10.48-1.81-15.62-.49-6.35,1.62-13.18,8.61-7.18,14.7.68.69,1.74-.37,1.06-1.06Z" transform="translate(5.15 -21.72)" fill="#e8e8e8"/><path d="M476.12,112.74l-9.7,24.07c-.36.89,1.09,1.28,1.44.4l9.7-24.07c.36-.9-1.09-1.29-1.44-.4Z" transform="translate(5.15 -21.72)" fill="#e8e8e8"/><path d="M444,132.12c-.42,1.42-.91,2.81-1.46,4.18-.36.89,1.09,1.28,1.45.4.55-1.37,1-2.76,1.46-4.18.28-.92-1.17-1.32-1.45-.4Z" transform="translate(5.15 -21.72)" fill="#e8e8e8"/><path d="M442.56,137.37c4.42,7,16.2,9.88,22.81,4.38.75-.62-.32-1.67-1.06-1.06-5.83,4.85-16.6,2.08-20.46-4.07-.51-.82-1.81-.07-1.29.75Z" transform="translate(5.15 -21.72)" fill="#e8e8e8"/><path d="M476.51,114.74q5,11.25,10.84,22.08c.45.85,1.75.1,1.29-.75q-5.85-10.84-10.83-22.09c-.39-.88-1.69-.12-1.3.76Z" transform="translate(5.15 -21.72)" fill="#e8e8e8"/><path d="M488.05,137.57c4.23,1.45,8.52,0,12.34-2,2.87-1.52,8.08-4.49,8.81-7.93.19-1-1.25-1.35-1.45-.4-.63,3-5.58,5.72-8.12,7-3.46,1.8-7.32,3.15-11.18,1.83-.92-.31-1.31,1.14-.4,1.45Z" transform="translate(5.15 -21.72)" fill="#e8e8e8"/><path d="M503.25,118.66l5.34,8.42c.52.81,1.82.06,1.3-.76l-5.34-8.41c-.52-.82-1.82-.06-1.3.75Z" transform="translate(5.15 -21.72)" fill="#e8e8e8"/><circle cx="439.02" cy="170" r="12.55" fill="none" stroke="#e8e8e8" stroke-miterlimit="10"/><path d="M422.91,191.3c6.2-.55,14.51,1.82,18.27,7.1.56.78,1.86,0,1.3-.75-4.11-5.76-12.76-8.45-19.57-7.85-1,.09-1,1.59,0,1.5Z" transform="translate(5.15 -21.72)" fill="#e8e8e8"/><path d="M425.89,183.33a20.2,20.2,0,0,1,18.21,9.83.75.75,0,0,0,1.3-.76,21.73,21.73,0,0,0-19.51-10.57c-1,0-1,1.54,0,1.5Z" transform="translate(5.15 -21.72)" fill="#e8e8e8"/><path d="M426.08,200.94a27,27,0,0,1,15.19-18.66c.88-.41.11-1.7-.76-1.3a28.43,28.43,0,0,0-15.88,19.56c-.21.94,1.23,1.34,1.45.4Z" transform="translate(5.15 -21.72)" fill="#e8e8e8"/><path d="M434.46,204.71c2.1-6.43,5-12.67,10.83-16.46.81-.52.06-1.82-.76-1.3-6.22,4-9.29,10.55-11.52,17.36-.3.92,1.15,1.32,1.45.4Z" transform="translate(5.15 -21.72)" fill="#e8e8e8"/><path d="M451,100.79q-3.31-3.78,2.64-5.88c.38.3.77.58,1.18.85.49-.07,1.12.27,1.68.19,3.94-.54,4.07-9.52,10.29-4a.76.76,0,0,0,1.17-.16c4.44-6.13,7.37,3.77,7.8,5.47a.75.75,0,0,0,1.45-.4c-.89-3.46-2.72-8.55-7.26-8-1.61.19-2.07,1-3.44.89-1.83-.13-2.65-2-4.87-1.08-2,.82-1.88,2.77-3.28,4-2.77,2.39-4.86-.64-7.45.17-4.11,1.29-2.75,6.16-1.21,8.8a.75.75,0,0,0,1.3-.76Z" transform="translate(5.15 -21.72)" fill="#e8e8e8"/><path d="M454.32,105.73a38.6,38.6,0,0,0,9.89,4c3.42.7,7.13-.08,10.57-.35,1-.08,1-1.58,0-1.5-3.23.25-7,1-10.18.4a35.51,35.51,0,0,1-9.52-3.8c-.86-.45-1.61.85-.76,1.3Z" transform="translate(5.15 -21.72)" fill="#e8e8e8"/><path d="M477.17,107.93c2.53,1.55,6,.78,8.74.23a34.27,34.27,0,0,0,11.17-4.51c.82-.51.06-1.8-.76-1.3a33.27,33.27,0,0,1-8.24,3.73c-2.74.8-7.52,2.17-10.15.56-.83-.51-1.58.79-.76,1.29Z" transform="translate(5.15 -21.72)" fill="#e8e8e8"/><path d="M457.47,112.8A160.3,160.3,0,0,1,451,130c-.39.87.9,1.63,1.29.75a167,167,0,0,0,6.66-17.58c.29-.92-1.16-1.32-1.45-.4Z" transform="translate(5.15 -21.72)" fill="#e8e8e8"/><path d="M463.49,118.15a157.18,157.18,0,0,0-6.52,16.9c-.29.92,1.16,1.32,1.45.4a152.53,152.53,0,0,1,6.37-16.54c.39-.87-.9-1.63-1.3-.76Z" transform="translate(5.15 -21.72)" fill="#e8e8e8"/><path d="M482.38,113.8l7.78,15.14c.44.86,1.73.1,1.29-.75L483.68,113c-.44-.85-1.74-.1-1.3.76Z" transform="translate(5.15 -21.72)" fill="#e8e8e8"/><path d="M490.15,110.8q2.7,7,5.17,14.06c.32.9,1.77.51,1.45-.4q-2.47-7.06-5.17-14.06c-.34-.89-1.79-.5-1.45.4Z" transform="translate(5.15 -21.72)" fill="#e8e8e8"/><path d="M444.84,131.33c-.4-.72-.55-.69-1.33-1s-1.71-.09-2.48-.32a7.71,7.71,0,0,1-4.06-3.42c-3.38-5.62-.68-12.89,6.63-11.92,1,.13.95-1.37,0-1.5-5.55-.74-10.36,3.3-9.65,9.07a12.65,12.65,0,0,0,2.71,6.48,8.73,8.73,0,0,0,3,2.33c.42.2,3.78.76,3.93,1,.47.84,1.77.08,1.29-.76Z" transform="translate(5.15 -21.72)" fill="#e8e8e8"/><path d="M444,126.05c-1.32-1-2.86-2.18-3-4-.2-2.27,1.69-3.75,3.63-4.38.92-.3.53-1.75-.4-1.45C442,117,440,118.5,439.53,121c-.48,2.72,1.44,4.61,3.4,6.15.76.59,1.82-.46,1.07-1.06Z" transform="translate(5.15 -21.72)" fill="#e8e8e8"/><path d="M449.32,101.09c-1.72,2.7-1.82,4.3-1.9,7.26-.14,4.43-3.31,7.77-3.73,12.09a.75.75,0,0,0,.55.72l2,1.39a.77.77,0,0,0,1.06,0c2.94-2.46,1.89-6.27,4-8.86a23.85,23.85,0,0,0,4.08-7.78c.34-.91-1.11-1.3-1.44-.4a25.08,25.08,0,0,1-3.4,6.88c-.41.56-.87.33-1.13.92-.8,1.83-.46,7.94-3.3,7.09-2.1-.63,2.1-7.35,2.53-8.79a7.67,7.67,0,0,0,.41-2.86c0-3,0-4.35,1.58-6.9.52-.82-.77-1.57-1.29-.76Z" transform="translate(5.15 -21.72)" fill="#e8e8e8"/><path d="M476.54,94.65c-1-1.54-.49-3,1.35-4.25a.76.76,0,0,0,.92-.52c2.4-7.38,7.64-2.79,11-.29a.76.76,0,0,0,1.1-.45q3.45-1.92,4.53,1.2a.75.75,0,0,0,1.3-.76c-1.66-2.86-5.77-5-7.27-.84l1.1-.45c-2-1.53-4.2-4.05-6.95-3.9a7.63,7.63,0,0,0-5.16,2.8c-1.22,1.46-1.05,1-2.59,1.93-2.21,1.33-1.47,4-.74,5.92.34.9,1.79.51,1.45-.39Z" transform="translate(5.15 -21.72)" fill="#e8e8e8"/><path d="M500.5,103.16c.71-4.47,6.36-5.21,9.06-2.41a8.52,8.52,0,0,1,1.93,5.82c.06,4.8-3,7.64-6.66,10.21-.79.54,0,1.84.76,1.29,2.79-1.94,5.73-4.06,6.84-7.44,1-3,.9-7.38-1.06-10.06-3.28-4.48-11.37-3.78-12.32,2.19-.15.95,1.3,1.35,1.45.4Z" transform="translate(5.15 -21.72)" fill="#e8e8e8"/><path d="M501.75,106.31c.61-1.75,3.86-.93,4.59.35.82,1.44-.58,3.65-1.49,4.67-.64.72.41,1.78,1.06,1.06,1.71-1.91,3.36-5.52.83-7.46-1.95-1.49-5.5-1.73-6.43,1-.32.92,1.13,1.31,1.44.4Z" transform="translate(5.15 -21.72)" fill="#e8e8e8"/><path d="M495.18,103a16.11,16.11,0,0,1,1.09,4.54c.08,1,1.58,1,1.5,0a17.57,17.57,0,0,0-1.14-4.94c-.35-.89-1.8-.5-1.45.4Z" transform="translate(5.15 -21.72)" fill="#e8e8e8"/><path d="M496.9,110.26a19.64,19.64,0,0,0,1.09,3.33c.38.88.78,2,1.73,2.4,2.32,1,2.1-3.19,2-4.36-.07-1-1.57-1-1.5,0a13.81,13.81,0,0,1,0,1.93,4.35,4.35,0,0,1-.13.9c-.12,0-.41-.71-.45-.79a17,17,0,0,1-1.32-3.81c-.22-.94-1.67-.54-1.45.4Z" transform="translate(5.15 -21.72)" fill="#e8e8e8"/><path d="M498.41,94.29a8.45,8.45,0,0,0,.61,1.56,3.11,3.11,0,0,0,.71.86c1.16,1.14.55,2.27-.17,3.49a.75.75,0,0,0,1.29.76,5.5,5.5,0,0,0,1.06-3.29c-.14-1.33-1.17-1.69-1.67-2.8-.34-.75-.47-1.63-1.37-2a1.47,1.47,0,0,0-1.91,1c-.35.9,1.1,1.29,1.45.4Z" transform="translate(5.15 -21.72)" fill="#e8e8e8"/><path d="M53.09,157.41a160.84,160.84,0,0,0-3.45,22.36c-.08,1,1.43,1,1.5,0a159.6,159.6,0,0,1,3.39-22c.21-.94-1.23-1.34-1.44-.4Z" transform="translate(5.15 -21.72)" fill="#e8e8e8"/><path d="M50.2,180.36a10.83,10.83,0,0,0,8.46.53c.91-.32.52-1.77-.4-1.45a9.31,9.31,0,0,1-7.3-.37c-.87-.42-1.63.87-.76,1.29Z" transform="translate(5.15 -21.72)" fill="#e8e8e8"/><path d="M54.44,159c1-2.76,6-1.53,7.86-.8.9.35,1.29-1.1.4-1.44-2.9-1.13-8.33-1.89-9.71,1.84-.33.91,1.12,1.3,1.45.4Z" transform="translate(5.15 -21.72)" fill="#e8e8e8"/><path d="M62.28,158a.75.75,0,0,0,0-1.5.75.75,0,0,0,0,1.5Z" transform="translate(5.15 -21.72)" fill="#e8e8e8"/><path d="M63.5,156.08a31.2,31.2,0,0,0,.64-7.09c0-1.13.11-2.92-1.4-3-1-.06-1,1.44,0,1.5H63l-.65-.37c.69.9.32,3.11.27,4.17a30.5,30.5,0,0,1-.56,4.38c-.19.95,1.25,1.35,1.44.4Z" transform="translate(5.15 -21.72)" fill="#e8e8e8"/><path d="M61.53,145.2c-3.42,1-8.89,1.52-11.82,3.53-2.38,1.64-2.78,5.17-3.52,7.79a119.3,119.3,0,0,0-4.42,27.2c-.11,2.42-.41,3.51,1.21,5,2.24,2.09,9.32,3.45,12.31,3.45,5.7,0,4.74-7.61,4.27-11.78-.11-.95-1.61-1-1.5,0,.23,2.08,1,7.31-.39,9-2,2.39-7.43.37-9.89-.43-3.52-1.13-4.63-3.55-4.41-7.14.21-3.39.56-6.78,1.07-10.14a120.27,120.27,0,0,1,3.19-14.77c1.07-3.75,2.28-6.76,6.27-7.93l8-2.35a.75.75,0,0,0-.4-1.44Z" transform="translate(5.15 -21.72)" fill="#e8e8e8"/><path d="M57.48,166.37a8.68,8.68,0,0,1-.24,6.36c-.39.87.9,1.64,1.29.75a10.17,10.17,0,0,0,.39-7.51c-.3-.91-1.75-.52-1.44.4Z" transform="translate(5.15 -21.72)" fill="#e8e8e8"/><path d="M61.59,164.08c1.89,3.47.85,7.24-.22,10.8a.75.75,0,0,0,1.45.4c1.19-4,2.16-8.09.07-11.95-.46-.85-1.76-.09-1.3.75Z" transform="translate(5.15 -21.72)" fill="#e8e8e8"/><path d="M66.72,160.37A15.36,15.36,0,0,1,71,173.55c-.14.95,1.31,1.36,1.45.4a17,17,0,0,0-4.67-14.64c-.68-.69-1.74.37-1.06,1.06Z" transform="translate(5.15 -21.72)" fill="#e8e8e8"/><path d="M50.21,228.87a99.3,99.3,0,0,0,18.4,19c.75.59,1.82-.46,1.06-1.06A98.27,98.27,0,0,1,51.5,228.11c-.57-.76-1.87,0-1.29.76Z" transform="translate(5.15 -21.72)" fill="#e8e8e8"/><path d="M51.44,229a140.77,140.77,0,0,1,28.34-24.16c.81-.52,0-1.82-.76-1.29A141.78,141.78,0,0,0,50.38,228c-.65.71.41,1.78,1.06,1.06Z" transform="translate(5.15 -21.72)" fill="#e8e8e8"/><path d="M80.21,204.33a68.31,68.31,0,0,1,17.07,16.76c.55.78,1.85,0,1.29-.75A70.06,70.06,0,0,0,81,203c-.8-.55-1.55.75-.76,1.29Z" transform="translate(5.15 -21.72)" fill="#e8e8e8"/><path d="M70.77,248.81c4.88-.81,8.9-6.72,12.09-10.08,4.92-5.19,9.53-10.63,13.9-16.27.59-.76-.46-1.83-1.06-1.07-3.64,4.7-7.45,9.27-11.47,13.66-3.33,3.64-8.83,11.48-13.86,12.32-1,.15-.55,1.6.4,1.44Z" transform="translate(5.15 -21.72)" fill="#e8e8e8"/><path d="M51.75,229.28c7.71-.83,17.07-2.12,23.85-6.14,2.11-1.24,2.38-2.62,3.09-4.93a95.51,95.51,0,0,0,3.47-14.73c.14-.95-1.31-1.36-1.44-.4a81.42,81.42,0,0,1-1.89,9.27c-1.3,4.88-1.69,8.31-6.9,10.7-6.15,2.82-13.52,4-20.18,4.73-1,.1-1,1.6,0,1.5Z" transform="translate(5.15 -21.72)" fill="#e8e8e8"/><path d="M150.22,174.46l-14.46,25.25c-2.46,4.31-8.86,11.56-5.61,16.79.51.81,1.81.06,1.3-.76-2.33-3.74,2.43-9.72,4.16-12.75l5.3-9.26,10.6-18.51a.75.75,0,0,0-1.29-.76Z" transform="translate(5.15 -21.72)" fill="#e8e8e8"/><path d="M152,175.55a90.6,90.6,0,0,1,23-2.1c1,0,1-1.46,0-1.5a91.34,91.34,0,0,0-23.43,2.16c-1,.21-.55,1.65.39,1.44Z" transform="translate(5.15 -21.72)" fill="#e8e8e8"/><path d="M131,216.18c3.06,1.67,7.07.76,10.4.62l15.65-.62c1,0,1-1.54,0-1.5l-12,.48c-3.6.14-10.11,1.48-13.32-.28-.85-.46-1.6.83-.76,1.3Z" transform="translate(5.15 -21.72)" fill="#e8e8e8"/><path d="M175.77,173.79c-5.05,13.42-11.89,26.08-18.36,38.85-.43.86.86,1.62,1.3.76,6.52-12.89,13.41-25.67,18.51-39.21.34-.91-1.11-1.3-1.45-.4Z" transform="translate(5.15 -21.72)" fill="#e8e8e8"/><path d="M131.13,212.4c3.67.73,7.38-.17,11.07-.53,4.26-.41,8.52-.66,12.8-.8,1,0,1-1.53,0-1.5-3.71.12-7.4.32-11.1.64-4,.35-8.46,1.53-12.38.74-.94-.18-1.34,1.26-.39,1.45Z" transform="translate(5.15 -21.72)" fill="#e8e8e8"/><path d="M173.87,172.64q-8.76,17.58-16.66,35.56c-.38.87.91,1.64,1.3.76q7.89-18,16.66-35.57c.43-.86-.87-1.62-1.3-.75Z" transform="translate(5.15 -21.72)" fill="#e8e8e8"/><path d="M144.28,205.81c-.14,0-.13-.3-.09-.42.09-.3.44-.48.7-.61s1.29-.68,1.55-.21-.16,1-.53,1.17a4.38,4.38,0,0,1-2.27.21c-1-.07-1,1.43,0,1.5,1.37.09,3.09.06,3.94-1.23a2.25,2.25,0,0,0-.46-3.08c-1.13-.68-3,.1-3.86,1a1.89,1.89,0,0,0,.62,3.14c.92.28,1.32-1.16.4-1.45Z" transform="translate(5.15 -21.72)" fill="#e8e8e8"/><path d="M135.78,203.7a198.39,198.39,0,0,0,22.27-2.41c.95-.16.54-1.61-.4-1.45a195.67,195.67,0,0,1-21.87,2.36c-1,.05-1,1.55,0,1.5Z" transform="translate(5.15 -21.72)" fill="#e8e8e8"/><path d="M85.23,142.67a59.84,59.84,0,0,0,9.92,25c.55.79,1.85,0,1.3-.75a59,59,0,0,1-9.78-24.61c-.15-1-1.59-.54-1.44.4Z" transform="translate(5.15 -21.72)" fill="#e8e8e8"/><path d="M142.67,179.7a17,17,0,0,1-5.2-1.89.75.75,0,0,0-.75,1.29,18.09,18.09,0,0,0,5.55,2c.95.18,1.35-1.26.4-1.44Z" transform="translate(5.15 -21.72)" fill="#e8e8e8"/><path d="M145.46,176.78l-6-6.7c-.65-.72-1.71.35-1.06,1.06l6,6.7c.65.72,1.71-.34,1.06-1.06Z" transform="translate(5.15 -21.72)" fill="#e8e8e8"/><path d="M148.37,173.07a57,57,0,0,0-.85-7.36c-.17-1-1.62-.55-1.45.4a54.12,54.12,0,0,1,.8,7c0,1,1.55,1,1.5,0Z" transform="translate(5.15 -21.72)" fill="#e8e8e8"/><path d="M172.21,167.67A48.52,48.52,0,0,0,176,159.2c.31-.91-1.14-1.31-1.45-.4a45.64,45.64,0,0,1-3.68,8.12.75.75,0,0,0,1.3.75Z" transform="translate(5.15 -21.72)" fill="#e8e8e8"/><path d="M179.45,172.56l5.36-3.58c.8-.53.05-1.83-.76-1.3l-5.35,3.59c-.8.53,0,1.83.75,1.29Z" transform="translate(5.15 -21.72)" fill="#e8e8e8"/><path d="M182,179.65a28.62,28.62,0,0,1,5.84.56c.94.19,1.35-1.26.4-1.45a30.42,30.42,0,0,0-6.24-.61.75.75,0,0,0,0,1.5Z" transform="translate(5.15 -21.72)" fill="#e8e8e8"/><path d="M86.74,143a194.53,194.53,0,0,1,32.43-12.72.75.75,0,0,0-.4-1.45A197.19,197.19,0,0,0,86,141.74c-.86.43-.1,1.72.76,1.29Z" transform="translate(5.15 -21.72)" fill="#e8e8e8"/><path d="M96,168A68.07,68.07,0,0,0,127.4,158c.82-.5.07-1.8-.76-1.29A66.41,66.41,0,0,1,96,166.46c-1,.06-1,1.56,0,1.5Z" transform="translate(5.15 -21.72)" fill="#e8e8e8"/><path d="M119,129q5.16,13.17,10.46,26.29c.35.88,1.8.49,1.44-.4q-5.3-13.12-10.45-26.29c-.35-.89-1.8-.5-1.45.4Z" transform="translate(5.15 -21.72)" fill="#e8e8e8"/><path d="M99.12,141.43l6.89-2.56c.89-.33.51-1.78-.4-1.45L98.72,140c-.9.33-.51,1.78.4,1.45Z" transform="translate(5.15 -21.72)" fill="#e8e8e8"/><path d="M95.1,147.9l20.43-7.54L115,139l-.78.37c-.87.41-.11,1.7.76,1.29l.78-.37c.76-.35.22-1.66-.58-1.37L94.7,146.45c-.9.33-.51,1.78.4,1.45Z" transform="translate(5.15 -21.72)" fill="#e8e8e8"/><path d="M96.86,151.65a74.08,74.08,0,0,1,7.56-3.24c.9-.33.51-1.78-.4-1.45a79,79,0,0,0-7.92,3.4c-.86.43-.11,1.72.76,1.29Z" transform="translate(5.15 -21.72)" fill="#e8e8e8"/><path d="M94.46,157.09a115.2,115.2,0,0,1,25.38-9.69.75.75,0,0,0-.39-1.45,117.19,117.19,0,0,0-25.75,9.84c-.84.46-.09,1.76.76,1.3Z" transform="translate(5.15 -21.72)" fill="#e8e8e8"/><path d="M98.44,160.84q8.49-4.51,17.37-8.17c.88-.36.5-1.82-.4-1.45q-9.06,3.74-17.73,8.33c-.85.45-.09,1.75.76,1.29Z" transform="translate(5.15 -21.72)" fill="#e8e8e8"/><path d="M99.31,164.83c5.8-2.68,11.79-6.21,18.11-7.39,1-.18.55-1.63-.4-1.45-6.48,1.21-12.53,4.8-18.47,7.54-.87.41-.11,1.7.76,1.3Z" transform="translate(5.15 -21.72)" fill="#e8e8e8"/><path d="M88.72,197.85q1.08-5,1.77-10.06c.13-.94-1.32-1.35-1.45-.4q-.69,5.07-1.76,10.06c-.21.94,1.24,1.34,1.44.4Z" transform="translate(5.15 -21.72)" fill="#e8e8e8"/><path d="M93.84,200.83a35.94,35.94,0,0,1,7.22-6.37c.8-.53,0-1.83-.76-1.29a37.86,37.86,0,0,0-7.52,6.6c-.63.73.42,1.79,1.06,1.06Z" transform="translate(5.15 -21.72)" fill="#e8e8e8"/><path d="M97.14,205.64a82.67,82.67,0,0,1,10.93,2c.94.23,1.33-1.22.4-1.45a85.69,85.69,0,0,0-11.33-2c-1-.11-1,1.39,0,1.5Z" transform="translate(5.15 -21.72)" fill="#e8e8e8"/><path d="M-4.61,547.2c76.09,18.66,154.55,26.36,232.82,24.7s156.41-12.51,232.65-30.47a1324.94,1324.94,0,0,0,128.35-37.29c.91-.31.52-1.76-.4-1.45C515,528.14,439,547.51,361.71,559c-77.71,11.52-156.77,15-235.1,8.24A860.09,860.09,0,0,1-4.21,545.76c-.94-.23-1.34,1.21-.4,1.44Z" transform="translate(5.15 -21.72)" fill="#e8e8e8"/><path d="M57,392.73A149.44,149.44,0,0,1,105.54,390c16,1.74,31.25,6.54,46.24,12.29,14.28,5.48,28.37,11.43,43.18,15.36a227.15,227.15,0,0,0,41.69,6.87c61.51,4.55,121.64-12.53,180.6-27.59,35-8.94,70.3-17.21,106.39-20.15,1-.08,1-1.58,0-1.5-62.93,5.12-122.7,26.46-184.22,39.06-30.75,6.29-62.17,10.43-93.61,9.2a233.89,233.89,0,0,1-46.89-6.42c-14.9-3.68-29.06-9.4-43.32-14.95C140,396,124.16,390.7,107.42,388.67a150.73,150.73,0,0,0-50.82,2.61c-.94.21-.54,1.66.4,1.45Z" transform="translate(5.15 -21.72)" fill="#e8e8e8"/><path d="M270.69,362.62c34.36,14.59,74.83,3.12,109.44-4.89,40.56-9.39,81-20.59,122.74-23.3,23.13-1.5,46.39-.28,69,5.13.94.22,1.34-1.22.4-1.45-79.23-19-156.86,13.72-234.13,26.76-22.14,3.73-45.53,5.43-66.67-3.54-.88-.37-1.65.92-.76,1.29Z" transform="translate(5.15 -21.72)" fill="#e8e8e8"/><path d="M133.1,328.78C199.16,305.05,267.75,336,334.62,338c18.84.57,37.66-1.21,55.74-6.71.92-.28.53-1.73-.4-1.45-67.43,20.51-135.57-11.68-203.47-11.35-18.32.08-36.52,2.64-53.79,8.85-.9.32-.51,1.77.4,1.44Z" transform="translate(5.15 -21.72)" fill="#e8e8e8"/><path d="M19.31,71.76c60.64-23,124.86,1.81,186.87,2.55,17.62.22,35.19-1.59,52.12-6.61a.75.75,0,0,0-.39-1.45c-62.38,18.49-126-7.9-189-5.51-17.07.64-34,3.5-50,9.58-.89.34-.51,1.79.4,1.44Z" transform="translate(5.15 -21.72)" fill="#e8e8e8"/><path d="M218.61,25.79c38.46,8.29,77.89,11.12,117.18,9.8,40.2-1.36,79.86-8.19,119.93-11.17,22.9-1.71,45.9-1.91,68.7,1.14,1,.13.94-1.37,0-1.5-39.73-5.32-79.65-.54-119.19,4.09-39.34,4.6-78.63,7.72-118.25,5.38a447,447,0,0,1-68-9.19c-.95-.2-1.35,1.25-.4,1.45Z" transform="translate(5.15 -21.72)" fill="#e8e8e8"/></g><g id="details"><circle cx="150.99" cy="66.38" r="5.47" fill="#ec615b"/><circle cx="181.62" cy="18.35" r="4.91" fill="#ec615b"/><circle cx="159.96" cy="417.04" r="7.19" fill="#ec615b"/><circle cx="441.43" cy="280.44" r="3.91" fill="#ec615b"/><circle cx="451.54" cy="31.74" r="2.43" fill="#ec615b"/><circle cx="192.38" cy="265.14" r="2.8" fill="#461eb8"/><circle cx="409.36" cy="359.61" r="5.35" fill="#461eb8"/><circle cx="412.04" cy="61.48" r="2.68" fill="#461eb8"/><circle cx="261.23" cy="25.28" r="2.02" fill="#461eb8"/><circle cx="102.7" cy="313.25" r="6.67" fill="#461eb8"/></g></g><g id="character"><g id="leg_right" data-name="leg right"><path d="M206.75,506l-9.86,21.23q-49.09-.72-49.58,3.81-.56,5.19,62.77,17.29,19.59-38.62,12.14-44.84Q218.28,500.17,206.75,506Z" transform="translate(5.15 -21.72)"/><path d="M301,277.18c-5.19,4-6.37,8.19-11.1,19.57-15,36.08-17.61,28.65-49.44,97.08-2.76,5.92-6,12.92-9.5,20.82-5.5,9.16-11,18.92-16.4,29.29-8.84,16.95-16.25,33.27-22.48,48.63A44.68,44.68,0,0,0,201,502.84c11.77,9.92,25.46,10.79,30.69,10.84,3-4.58,6-9.4,9-14.46a276.26,276.26,0,0,0,28.59-70.82c7-9.49,18-24.07,32.28-41.44,19.53-23.77,26.75-30.37,36.26-44.43,8.38-12.37,19.14-31.43,26.91-58.56C345.77,275,317.24,264.65,301,277.18Z" transform="translate(5.15 -21.72)" fill="#fff"/><path d="M326.15,316.15A556.51,556.51,0,0,1,295,371a555.11,555.11,0,0,1-39,53.29,121.72,121.72,0,0,1-6.85,30.07c-10.32,28.07-28.66,45.63-39.27,54.27l21.79,5c5-9.16,10-18.9,14.84-29.22a536.18,536.18,0,0,0,22.16-54.87q18.32-23.23,36.81-47.83,16.91-22.49,32.75-44.53Z" transform="translate(5.15 -21.72)" fill="#9e9e9e" opacity="0.35"/><path d="M302,273.93a1476.62,1476.62,0,0,0-70.43,137.61c-.39.87.9,1.63,1.3.75a1472.84,1472.84,0,0,1,70.43-137.6.75.75,0,0,0-1.3-.76Z" transform="translate(5.15 -21.72)"/><path d="M335.64,339.94q-32.55,44.65-66.95,87.93c-.6.75.46,1.82,1.06,1.06q34.5-43.41,67.18-88.23c.57-.78-.73-1.53-1.29-.76Z" transform="translate(5.15 -21.72)"/><path d="M268.65,427.82A587.19,587.19,0,0,1,235.94,507c-.43.86.86,1.62,1.29.76a588.16,588.16,0,0,0,32.87-79.57c.3-.92-1.15-1.32-1.45-.4Z" transform="translate(5.15 -21.72)"/><path d="M232,411.36a574.51,574.51,0,0,0-40.7,81c-.36.89,1.09,1.28,1.45.39a573.17,573.17,0,0,1,40.54-80.64c.51-.83-.79-1.58-1.29-.76Z" transform="translate(5.15 -21.72)"/><path d="M193.61,497.87c9.61,9.8,24.66,14.31,37.84,16.53.94.16,1.35-1.29.4-1.45-13-2.18-27.74-6.52-37.18-16.14-.67-.69-1.73.37-1.06,1.06Z" transform="translate(5.15 -21.72)"/></g><g id="leg_left" data-name="leg left"><path d="M346.54,530.07q-1.14,9.36-2.27,18.73c-6.25,2.37-14.6,5.62-24.4,9.64-16.82,6.91-25.23,10.36-25,11.35.37,1.44,14.27-.06,72.06-12.48V530.07Z" transform="translate(5.15 -21.72)"/><path d="M315.07,276.38c-2.58,3.07-9.28,11-7.07,18.08,1,3.24,3.9,6.34,7.86,10.61a77.73,77.73,0,0,0,5.84,5.65q2.78,31.47,5.95,63.51,3.83,38.44,8.08,76c-1,6.56-1.93,13.33-2.69,20.31a451.52,451.52,0,0,0-2.53,58.86,30.92,30.92,0,0,0,8.84,5.92,34.4,34.4,0,0,0,16.6,2.38c14.59-1.67,23.16-13.37,24.62-15.43-.29-4.87-.89-12.34-2.28-21.4-3.05-19.95-6.33-24.24-7.32-39.47-.5-7.6-.06-13.82.8-26.24.75-10.78,1.62-16.49,2.87-27,2.25-18.92,4.29-36.11,4.58-57.06a243.48,243.48,0,0,0-1.12-29.8,218.09,218.09,0,0,0-4.89-27.67,221.45,221.45,0,0,0-11-33.3C355.62,260,329.13,259.73,315.07,276.38Z" transform="translate(5.15 -21.72)" fill="#fff"/><path d="M345.18,276.27a399.81,399.81,0,0,1,9.5,39.83A410.29,410.29,0,0,1,355.41,459a190.48,190.48,0,0,1,.54,78.7,24.54,24.54,0,0,0,4.75-.29c11.88-1.9,19-12.16,21.38-15.92q-5.85-29.79-11.69-59.56c1.26-22.8,2.94-41.19,4.25-53.79,1.64-15.8,2.52-20.8,3.47-34.63,1.9-27.46.84-42.22.54-46-.73-9.44-1.48-18.48-4.5-30.16a142.89,142.89,0,0,0-12.53-32Z" transform="translate(5.15 -21.72)" fill="#9e9e9e" opacity="0.23"/><path d="M309.09,298.78a78.87,78.87,0,0,1,11.46,11.79c.6.76,1.66-.31,1.06-1.06a78.39,78.39,0,0,0-11.46-11.79c-.74-.62-1.8.44-1.06,1.06Z" transform="translate(5.15 -21.72)"/><path d="M321,310.72l15.78,151.92c.1.95,1.6,1,1.5,0L322.45,310.72c-.1-1-1.6-1-1.5,0Z" transform="translate(5.15 -21.72)"/><path d="M335.2,451.72a360.11,360.11,0,0,0-5.44,77.64c0,1,1.53,1,1.5,0a358.31,358.31,0,0,1,5.39-77.24c.17-.95-1.28-1.35-1.45-.4Z" transform="translate(5.15 -21.72)"/><path d="M364.55,271.29c28.78,64.22,4.52,135.24,4.47,202.13a.75.75,0,0,0,1.5,0c.05-67.24,24.26-138.33-4.68-202.89-.39-.88-1.69-.12-1.29.76Z" transform="translate(5.15 -21.72)"/><path d="M369.55,458.68a409.11,409.11,0,0,1,10.27,63.55c.08,1,1.58,1,1.5,0a411.84,411.84,0,0,0-10.32-64c-.23-.93-1.68-.54-1.45.4Z" transform="translate(5.15 -21.72)"/><path d="M330.94,531.78c6.65,5.59,17.77,6.81,26.18,6.62,9.95-.23,16.52-6,23-12.87.67-.7-.39-1.76-1.06-1.06-6.21,6.57-12.4,12.18-22,12.43-7.82.2-18.91-1-25.12-6.18-.74-.62-1.8.44-1.06,1.06Z" transform="translate(5.15 -21.72)"/></g><g id="arm_right" data-name="arm right"><path d="M287.56,165.34c-2.63.11-4.55,5.21-6.28,9.83a46.23,46.23,0,0,0-2.88,14c-.86,15.44-.65,27.67-.87,38.08-.13,5.7-.37,10.61-.61,14.44l11.76,32.09a34,34,0,0,0,4.25-6.13,36.57,36.57,0,0,0,3.72-10.9,131.7,131.7,0,0,0,2.22-19c.64-11.74,1-17.62.92-24.79-.05-10.76-.08-16.13-1.08-22C296.88,180.1,292.12,165.15,287.56,165.34Z" transform="translate(5.15 -21.72)" fill="#fff"/><path d="M294.22,177.38c-.94.2,1.13,9.42,1.49,24.08.17,7.25-.22,9.63-1.3,26.5-1.54,24.1-2.45,38.72-1.1,38.91.95.13,2.69-6.88,3.06-8.39a62.64,62.64,0,0,0,1.78-13.23c.45-10.32.15,5.66,1.41-21,1.1-23.18.87-25.55.59-27.61C298.73,186.15,295.17,177.19,294.22,177.38Z" transform="translate(5.15 -21.72)" fill="#9e9e9e" opacity="0.32"/><path d="M285.13,163.24c-11.68,24.14-8.67,52.24-8,78.21a.75.75,0,0,0,1.5,0c-.69-25.64-3.77-53.61,7.76-77.46.42-.86-.87-1.62-1.29-.75Z" transform="translate(5.15 -21.72)"/><path d="M294.76,178.17c5.56,12.76,4.52,29.11,4.23,42.77a280.56,280.56,0,0,1-4.52,44.23c-.17.94,1.27,1.35,1.44.4A283.21,283.21,0,0,0,300.53,219c.18-13.42,1-29-4.48-41.59-.38-.88-1.67-.12-1.29.76Z" transform="translate(5.15 -21.72)"/></g><g id="torso"><path d="M294,167.16c-1.44,2.84-2.25,8.87-3.88,20.93-1.33,9.88-2.47,18.77-1.55,29.84.33,3.89,1.38,9,3.49,19.38,3.89,19.07,6.25,25.37,3.1,32.94a24.66,24.66,0,0,1-7,9.3,130.46,130.46,0,0,0,26,4.27A134.18,134.18,0,0,0,372.57,274c1.65-21.6,2.7-46.42,2.38-73.93-.34-29.39-2-36.87-7.74-42.82C349.5,139.05,304.15,147,294,167.16Z" transform="translate(5.15 -21.72)" fill="#ec615b"/></g><g id="arm_left" data-name="arm left"><path d="M368.64,160.22c-2.65.9-2.55,7.85-2.23,21.71,0,2.3.16,5.85.94,17.5,1,15,1.47,18.75,1.53,26.33.05,5.76-.16,10.4-.33,13.22a78.69,78.69,0,0,1,4.77,8.7,80.84,80.84,0,0,1,7.18,26.39,23.89,23.89,0,0,0,5.86-7.3c1.7-3.33,2.1-6.16,2.61-10,1.32-9.89,2-14.84,2.22-17.57,1.47-16,1.66-13.22,1.82-17.88a98.86,98.86,0,0,0-2.21-25.65,76.49,76.49,0,0,0-3.63-11.59,64.5,64.5,0,0,0-7.11-13C376.47,166.07,371.56,159.23,368.64,160.22Z" transform="translate(5.15 -21.72)" fill="#fff"/><path d="M369.91,161.29c-1.6.87,3.89,9.82,7.66,25.53,4.24,17.62,1.9,25.28,7.66,47.67,1.46,5.65,3.39,13,5,12.83,2.7-.26,2.78-21.65,2.79-26,0-8.1.05-12.15-.74-17.39A77.79,77.79,0,0,0,382,175.54C378,168.86,371.52,160.41,369.91,161.29Z" transform="translate(5.15 -21.72)" fill="#9e9e9e" opacity="0.31"/><path d="M367.24,161.75c-4.25,23.84,2,47.75.66,71.69,0,1,1.45,1,1.5,0,1.32-23.8-4.93-47.6-.72-71.29.17-.94-1.28-1.35-1.44-.4Z" transform="translate(5.15 -21.72)"/><path d="M371.34,162.62c14.52,12.9,20.36,32.19,20.93,51.12.33,10.79-.87,21.56-2.41,32.23-1.29,9-1.5,21.68-9.74,27.45-.78.55,0,1.85.76,1.29,7.36-5.15,8.32-14.41,9.58-22.64,1.84-12.06,3.52-24.21,3.35-36.42-.28-19.94-6.09-40.47-21.4-54.09-.72-.64-1.79.42-1.07,1.06Z" transform="translate(5.15 -21.72)"/></g><g id="balance_stick" data-name="balance stick"><path d="M502.74,264.77a500.17,500.17,0,0,0-399.72,0c-1.15-.42-5.14-2-6.8-5.92-2.13-5,.41-12,6.8-16a678.18,678.18,0,0,1,410.23,5.84,9.72,9.72,0,0,1-10.51,16Z" transform="translate(5.15 -21.72)" fill="#fff" stroke="#000" stroke-miterlimit="10"/><ellipse cx="513.45" cy="234.69" rx="7.31" ry="9.08" fill="#fff" stroke="#000" stroke-miterlimit="10"/><path d="M144.76,248.83a11.88,11.88,0,0,1-4.33-7.13,12.13,12.13,0,0,1,2.6-9.54" transform="translate(5.15 -21.72)" fill="#fff" stroke="#000" stroke-miterlimit="10"/><path d="M449.32,230.87a9.1,9.1,0,0,0-4.43,6.95,8.81,8.81,0,0,0,2.66,6.69" transform="translate(5.15 -21.72)" fill="none" stroke="#000" stroke-miterlimit="10"/></g><g id="hand_left" data-name="hand left"><path d="M322,210.33l-7.45,2L320,231.25l13.51,6.23c3,4,6.36,8.08,10.08,12.2a181.73,181.73,0,0,0,34,29.34,17.35,17.35,0,0,0,7-6.11c5.48-8.49.65-18.61.29-19.33a46.68,46.68,0,0,0-9.38-7.65c-6.5-4-10.75-4.3-16.65-8.91a36.24,36.24,0,0,1-5.9-5.82,6.31,6.31,0,0,0,4.94-5.11,5.58,5.58,0,0,0-1-3.68,8.23,8.23,0,0,1-5,2.48c-2.08.2-5.18-.34-6.61-2.6a7.38,7.38,0,0,1-.74-4.53,12.57,12.57,0,0,1,.94-4.17c4.74,2.11,5.88,1.16,6.15.87,1.49-1.63-1.23-7.74-4.52-8.26-1-.17-1.54.3-3.74,1a26.58,26.58,0,0,1-6,1.1A27.49,27.49,0,0,0,322,210.33Z" transform="translate(5.15 -21.72)" fill="#fff"/><path d="M320,231.25c.06-2.41,7.06-4.87,13.25-4.37,1.6.13,7.12.77,14,6.7s8.52,11.33,13.94,21.55a213.7,213.7,0,0,0,12.86,21.12c-3.28-2-6.66-4.17-10.08-6.68a128.84,128.84,0,0,1-30.79-32.33C331.91,237,320,234.42,320,231.25Z" transform="translate(5.15 -21.72)" fill="#9e9e9e" opacity="0.3"/><path d="M355.34,235.5c3.07,2.27,6.51,3.63,10,5.1a29.86,29.86,0,0,1,12.55,9.19c.59.76,1.65-.31,1.06-1.07a28.48,28.48,0,0,0-10.47-8.38c-4.21-2-8.6-3.34-12.38-6.14-.78-.57-1.53.73-.76,1.3Z" transform="translate(5.15 -21.72)"/><path d="M319.66,231.89l13.52,6.24c.87.4,1.63-.89.75-1.3l-13.51-6.23c-.87-.4-1.64.89-.76,1.29Z" transform="translate(5.15 -21.72)"/><path d="M332.71,237.63c11.94,14.8,24.24,29.69,41,39.27a.75.75,0,0,0,.75-1.3c-16.61-9.51-28.8-24.34-40.66-39-.6-.75-1.66.31-1.06,1.06Z" transform="translate(5.15 -21.72)"/><path d="M321.15,231.42a57.16,57.16,0,0,1-4.2-10.7,26.18,26.18,0,0,1-1-4.27c-.38-3.82,1.3-4.62,4.66-4.9.95-.08,1-1.58,0-1.5a19.82,19.82,0,0,0-6.42,1.61.74.74,0,0,0-.37.65,59.86,59.86,0,0,0,6,19.86c.44.87,1.73.11,1.3-.75Z" transform="translate(5.15 -21.72)"/><path d="M323.64,222.55c-.44-3.08-.82-6.18-1.05-9.28-.16-2.08.42-3,2.71-3.3,1.2-.15,2.41-.28,3.62-.42.95-.11,1-1.61,0-1.5-2.12.24-6.73-.15-7.74,2.38-.63,1.59,0,3.84.15,5.48.23,2.35.53,4.7.86,7,.14,1,1.58.54,1.45-.4Z" transform="translate(5.15 -21.72)"/><path d="M331.21,222.41c-.19-2.71-.4-5.42-.59-8.12a11.86,11.86,0,0,1,0-3.47c.68-2.73,3.33-2.73,5.56-2.37.94.16,1.35-1.29.4-1.45-2.76-.45-5.94-.42-7.16,2.61a10.71,10.71,0,0,0-.32,4.68c.19,2.7.4,5.41.59,8.12.07,1,1.57,1,1.5,0Z" transform="translate(5.15 -21.72)"/><path d="M337,222c-.41-2.41-2.95-10.53-.56-12.32,1.18-.88,3.51-1.11,4.92-1.46,2-.5,3.94-.92,5.93-1.32.94-.19.54-1.64-.4-1.45-2.78.56-5.55,1.17-8.28,1.94-1.51.43-3.44.79-4.32,2.27-.75,1.26-.41,2.71-.2,4.07.46,2.89,1,5.78,1.46,8.67.16,1,1.61.55,1.45-.4Z" transform="translate(5.15 -21.72)"/><path d="M345.87,222.11a33.11,33.11,0,0,1,.3-8.32c.16-.95-1.29-1.35-1.45-.4a34.42,34.42,0,0,0-.35,8.72c.08.95,1.58,1,1.5,0Z" transform="translate(5.15 -21.72)"/><path d="M346.89,207.43a10.57,10.57,0,0,1,5,7.4c.17.95,1.61.55,1.45-.4a12,12,0,0,0-5.69-8.3.75.75,0,0,0-.75,1.3Z" transform="translate(5.15 -21.72)"/><path d="M346,215.11a13.14,13.14,0,0,0,5.82.07c.94-.19.54-1.64-.4-1.44a11.34,11.34,0,0,1-5-.08c-.94-.22-1.34,1.23-.4,1.45Z" transform="translate(5.15 -21.72)"/><path d="M344.94,222.56c2.61,1.8,5.51,3.42,8.67,2,.88-.39.12-1.69-.75-1.3-2.58,1.15-5.11-.6-7.16-2-.8-.55-1.55.75-.76,1.3Z" transform="translate(5.15 -21.72)"/><path d="M356.4,223.19a7.31,7.31,0,0,1,.73,2.9c-.12,1.94-1.5,2.1-2.9,2.86a3.81,3.81,0,0,0-1.76,1.36c-1,1.86,1.09,3.66,2.15,4.91.62.73,1.68-.33,1.06-1.07a8.52,8.52,0,0,1-1.33-1.56l-.05-2a13.88,13.88,0,0,1,1.4-.53,4.53,4.53,0,0,0,1.94-1.21c1.49-1.76,1-4.1.21-6-.36-.89-1.81-.5-1.45.4Z" transform="translate(5.15 -21.72)"/><path d="M354.05,224.25a9.1,9.1,0,0,0,3.22-1.2.75.75,0,0,0-.76-1.29,7.7,7.7,0,0,1-2.86,1c-.95.16-.55,1.61.4,1.45Z" transform="translate(5.15 -21.72)"/></g><g id="hand_right" data-name="hand right"><path d="M269,226a3.54,3.54,0,0,1,1.22,2.4c.43,3.15-3.08,5.58-3.23,5.68a21.93,21.93,0,0,0,11.54,8.42,18.6,18.6,0,0,1,5.52,3.89c.92,1,3,3.31,4.71,8.4a40.58,40.58,0,0,1,1.53,17.93,15.89,15.89,0,0,1-5.88.85,17,17,0,0,1-7.85-2.5c-7.92-4.57-15.07-12.31-15.78-13.09-6.26-6.85-11.45-12.77-15.4-17.36a21,21,0,0,1-8.54-4.7,18.4,18.4,0,0,1-4.5-6c-3-6.62-.29-13.31.38-14.87a30.92,30.92,0,0,1,12.83-4.93c3.93-.55,3.9.25,8.55-.11,5.11-.4,6.83-1.5,8.65-.29,1.56,1,2.08,3,2.28,4.48a7.55,7.55,0,0,0-3,2.84c-.89,1.54-.89,2.93-.88,5.31,0,2,.35,2.47.53,2.66.38.37.85.47,3.36.53C267.76,225.59,268.34,225.49,269,226Z" transform="translate(5.15 -21.72)" fill="#fff"/><path d="M232.41,230.89a20.51,20.51,0,0,1,9.34-4.43c12.49-2.21,22.41,9.33,23.71,10.89,3.84,4.6,3.54,7,7,13.79a73.25,73.25,0,0,0,16.95,21.59,26.29,26.29,0,0,1-11.27-1c-5.61-1.79-9.06-5.12-14.06-10.29s-11.07-11.67-17.5-19a11.47,11.47,0,0,0-4.36-4.6c-2.71-1.54-4.78-1-7-2.8A8.76,8.76,0,0,1,232.41,230.89Z" transform="translate(5.15 -21.72)" fill="#9e9e9e" opacity="0.35"/><path d="M232,215c-.58,5-1.93,12.59-.08,17.46,1.46,3.84,7,5.26,10.32,7,.86.44,1.62-.85.76-1.29-5.33-2.74-9.43-3.71-10-10.82a62,62,0,0,1,.54-12.33c.11-.95-1.39-.95-1.5,0Z" transform="translate(5.15 -21.72)"/><path d="M233.9,215.66c-.21-1.52,1.75-2.17,2.88-2.42a13.37,13.37,0,0,0,3.22-1c.86-.45.1-1.74-.76-1.3-1.65.87-3.65.69-5.21,1.78a3.36,3.36,0,0,0-1.58,3.34c.13.95,1.57.55,1.45-.4Z" transform="translate(5.15 -21.72)"/><path d="M240.46,222.64c-.07-2.73-.53-5.74-.24-8.44.28-2.51,4.36-3.15,6.51-3.56,1-.17.55-1.62-.4-1.44-1.88.35-6.48,1.28-7.55,3.13-.5.88,0,3.39,0,4.35l.17,6c0,1,1.53,1,1.5,0Z" transform="translate(5.15 -21.72)"/><path d="M246.54,221.63l.62-6.73c.17-1.82-.06-2.67,2.16-3.8a13.45,13.45,0,0,1,3.39-.83c.95-.18.54-1.62-.4-1.44-2,.37-5.34.71-6.24,2.84-.51,1.21-.38,2.94-.5,4.19l-.53,5.77c-.09,1,1.41,1,1.5,0Z" transform="translate(5.15 -21.72)"/><path d="M252.9,221c0-2.73-.08-6,.78-8.65,1.09-3.31,6.34-2.2,9.07-1.88,1,.11.95-1.39,0-1.5-2.6-.3-7.81-1.43-9.73,1.09-.91,1.19-1,2.93-1.17,4.34a58.37,58.37,0,0,0-.45,6.6.75.75,0,0,0,1.5,0Z" transform="translate(5.15 -21.72)"/><path d="M262.07,210.49a16.52,16.52,0,0,1,2.56,4.77c.31.91,1.76.51,1.45-.4a18.16,18.16,0,0,0-2.71-5.13c-.58-.75-1.89,0-1.3.76Z" transform="translate(5.15 -21.72)"/><path d="M262.52,214.27c-1.65.28-2,2-2.25,3.45a19.73,19.73,0,0,0,.25,7.06c.2.94,1.65.54,1.45-.4a18.75,18.75,0,0,1-.42-4.36c0-1,0-4.06,1.37-4.3.95-.16.55-1.61-.4-1.45Z" transform="translate(5.15 -21.72)"/><path d="M261.65,225.65a8.86,8.86,0,0,0,7.54,1c.92-.29.53-1.74-.39-1.45a7.41,7.41,0,0,1-6.4-.89c-.81-.53-1.56.77-.75,1.3Z" transform="translate(5.15 -21.72)"/><path d="M268.83,226.76a4.37,4.37,0,0,1-.9,5.66c-1.14,1-2.38,1.57-3.09,3-.43.86.87,1.62,1.3.76,1-2.07,3.57-2.64,4.46-4.91a5.91,5.91,0,0,0-.47-5.24.75.75,0,0,0-1.3.75Z" transform="translate(5.15 -21.72)"/><path d="M245.32,241.86c7.07,7.87,13.81,16.43,21.73,23.48,6.33,5.64,13.91,9.6,22.57,9.07,1-.06,1-1.56,0-1.5-10.2.62-18.35-5.16-25.16-12.14-6.26-6.42-12.09-13.3-18.08-20-.65-.72-1.71.34-1.06,1.06Z" transform="translate(5.15 -21.72)"/><path d="M289.22,273.45c1.49.25,2.37-.69,3.1-1.89,1.26-2.09,2.37-4.28,3.55-6.41.47-.84-.83-1.6-1.3-.76l-2.22,4c-.42.77-1.55,3.8-2.73,3.61-.94-.16-1.35,1.29-.4,1.44Z" transform="translate(5.15 -21.72)"/><path d="M266.23,234.22c4.18,7.3,13.89,7.57,18.55,14.29.55.79,1.85,0,1.3-.76-4.68-6.74-14.44-7.1-18.55-14.29a.75.75,0,0,0-1.3.76Z" transform="translate(5.15 -21.72)"/></g><g id="head"><path d="M286.12,79.41a36.21,36.21,0,0,0-9.73,15.14c-2.35,7.19-1.71,13.14-1.26,17.36a45,45,0,0,0,5.59,18.15c2.57,4.51,6.17,10.83,13.54,13.6a21,21,0,0,0,7.16,1.31l7.24-1.67a31.84,31.84,0,0,0,10.59,12.07l13.2-9.7-9.4-17q1.93-4.68,3.89-9.34a12.48,12.48,0,0,0,5-.09,13,13,0,0,0,7.1-4.57c1-1.18,4.55-5.54,3-10.15a7.35,7.35,0,0,0-4.35-4.65c-2.77-.9-6.07.26-8.21,3,0-2-.07-13.42-8.89-21.28S297.77,72.66,286.12,79.41Z" transform="translate(5.15 -21.72)" fill="#fff"/><path d="M325.21,93.7a52.72,52.72,0,0,1-4.2,21.89c-7.64,17.73-23,25.56-27.56,27.69a14.91,14.91,0,0,0,5.47,1.8A15.75,15.75,0,0,0,309,142.73q2.07,3.61,4.15,7.23a32.77,32.77,0,0,0,13.79-30.65,12.67,12.67,0,0,0,5-.09,13.17,13.17,0,0,0,8.58-6.6c.53-1.05,3.45-7.31-.07-10.74-2.53-2.46-7.43-2.55-11.27.44Z" transform="translate(5.15 -21.72)" fill="#9e9e9e" opacity="0.36"/><path d="M277.36,91.21q8.72-5.71,17.51-11.71c2.22-1.51,4.42-3,6.61-4.54a39.19,39.19,0,0,0,13.94,20.88,37.46,37.46,0,0,0,13.77,6.48,7.31,7.31,0,0,1,6.62-3.48c3.53.3,5.57,3.46,6.24,5.66.92,3-.35,5.67-1.17,7.38a13.42,13.42,0,0,1-7.05,6.74,13,13,0,0,1-6.89.69c-.72,1.38-1.76,3.47-2.88,6.06a79.84,79.84,0,0,0-3.85,10.51c-1.77,8.46,11.54,26.17,29.25,26.66,16.87.47,31.51-14.67,30.64-25.07-.5-6-5.86-6.15-11.78-19.07-3-6.52-2.67-8.75-6.57-17-.53-1.11-3.74-8.35-7.5-13.19-11.46-14.75-28.53-18.9-33.14-20-7.91-1.8-25-5.7-40,4.35-11.71,7.84-15.86,19.94-16.95,23.24-2.88,8.8-.34,10.35-2.1,23.7-2.78,21.12-10.14,24.79-7.34,34.93,2.7,9.82,12.52,17,21.74,19.2,14.44,3.45,30.71-4.51,38.69-19.95l-6.6-11.24a15.25,15.25,0,0,1-7.8,3c-8.52.59-14.9-7.32-17.69-10.8C270.45,119.06,276.18,95.71,277.36,91.21Z" transform="translate(5.15 -21.72)" fill="#461eb8"/><path d="M281.85,80.15a50.29,50.29,0,0,0-5.94,40c3.21,11.69,11.29,24.13,24.22,25.83.95.13.95-1.37,0-1.5-13.26-1.74-21-15.82-23.5-27.74a48.71,48.71,0,0,1,6.52-35.84c.51-.81-.79-1.57-1.3-.75Z" transform="translate(5.15 -21.72)"/><path d="M301.42,145.72c12.62-1.68,23.33-14.33,26.24-26.21.23-.94-1.22-1.34-1.45-.4-2.72,11.11-12.9,23.52-24.79,25.11-.94.13-.95,1.63,0,1.5Z" transform="translate(5.15 -21.72)"/><path d="M327,119.61c7.83,2.26,16.27-5.14,16.13-13.19-.12-7.57-9.39-10-14-4.66-.63.73.43,1.79,1.06,1.06,5.36-6.15,13.38,0,10.7,7.1-2.1,5.54-7.27,10-13.47,8.25a.75.75,0,0,0-.39,1.44Z" transform="translate(5.15 -21.72)"/><path d="M308,143.68a37.43,37.43,0,0,0,7.88,10.23c.71.65,1.77-.41,1.06-1.06a36.44,36.44,0,0,1-7.65-9.92c-.45-.86-1.74-.1-1.29.75Z" transform="translate(5.15 -21.72)"/><path d="M292.23,84.08c-4.42,9.23-4,21.25-3.71,31.25a.76.76,0,0,0,1.28.53,57.86,57.86,0,0,0,4.89-6.26c.54-.8-.76-1.55-1.29-.76a56.12,56.12,0,0,1-4.66,6l1.28.53c-.25-9.6-.71-21.68,3.51-30.49.41-.87-.88-1.63-1.3-.76Z" transform="translate(5.15 -21.72)"/><path d="M289.42,123.5c6.93,2,12.71-2.63,15.93-8.41.47-.85-.83-1.61-1.3-.76-2.89,5.19-7.91,9.5-14.23,7.72a.75.75,0,0,0-.4,1.45Z" transform="translate(5.15 -21.72)"/><path d="M303.1,114a3.22,3.22,0,0,1,1.78,1.4c.51.82,1.81.06,1.3-.76a4.89,4.89,0,0,0-2.68-2.09c-.92-.29-1.32,1.16-.4,1.45Z" transform="translate(5.15 -21.72)"/><path d="M306.27,105.05v.25a.75.75,0,0,0,1.5,0v-.25a.75.75,0,0,0-1.5,0Z" transform="translate(5.15 -21.72)"/><path d="M313.72,102.58a.75.75,0,0,0,0-1.5.75.75,0,0,0,0,1.5Z" transform="translate(5.15 -21.72)"/><path d="M313.47,109.77a.75.75,0,0,0,0-1.5.75.75,0,0,0,0,1.5Z" transform="translate(5.15 -21.72)"/><path d="M279,111.51h.25a.75.75,0,0,0,0-1.5H279a.75.75,0,0,0,0,1.5Z" transform="translate(5.15 -21.72)"/><path d="M284.69,110.26h-.5a.75.75,0,0,0,0,1.5h.5a.75.75,0,0,0,0-1.5Z" transform="translate(5.15 -21.72)"/><path d="M283.2,116.47a.75.75,0,0,0,0-1.5.75.75,0,0,0,0,1.5Z" transform="translate(5.15 -21.72)"/><path d="M282.61,87.57c1.27-1.83,3.87-3.89,6-1.93.7.65,1.77-.41,1.06-1.06-2.9-2.67-6.49-.44-8.36,2.24-.55.79.75,1.54,1.3.75Z" transform="translate(5.15 -21.72)"/><path d="M299.93,85.8A5.45,5.45,0,0,1,308,84.74c.74.61,1.8-.44,1.06-1.06A7,7,0,0,0,298.64,85c-.56.79.74,1.54,1.29.76Z" transform="translate(5.15 -21.72)"/><ellipse cx="288.47" cy="77.38" rx="1.37" ry="4.37"/><ellipse cx="307.94" cy="75.74" rx="1.37" ry="4.37"/></g></g></svg>